<?xml version="1.0" encoding="UTF-8"?>
<svg xmlns="http://www.w3.org/2000/svg" xmlns:xlink="http://www.w3.org/1999/xlink" contentScriptType="text/ecmascript" zoomAndPan="magnify" baseProfile="tiny" contentStyleType="text/css" version="1.1" width="44px" preserveAspectRatio="xMidYMid meet" viewBox="0 0 44 44" height="44px" x="0px" y="0px">
    <g>
        <g>
            <g>
                <rect width="44" fill="none" height="44"/>
                <path d="M 35.898 14.374 L 35.898 14.374 C 31.522999 14.375 27.149998 14.375 22.776999 14.375 L 20.246998 11.458 C 17.749998 11.458 15.251998 11.458 12.754997 11.458 C 11.369997 11.458 9.984997 11.458 8.599997 11.458 C 6.7919965 11.458 5.5529966 12.589001 5.116997 14.375 L 4.999 14.375 C 4.999 22.234001 4.999 30.093 4.999 37.951 C 13.558001 37.951 22.118 37.956 30.677 37.952 C 33.397 37.951 36.115 37.95 38.835 37.95 C 38.835 30.092001 38.835 22.233002 38.835 14.374001 L 35.898 14.374001 " fill-opacity="0.2"/>
                <path d="M 35.898 15.375 C 31.373999 15.375 26.847 15.375 22.323997 15.375 L 19.791998 12.458 L 8.031 12.458 C 6.738 12.458 5.976 14.3 6.009 15.375 L 6.0 15.375 C 6.0 22.568 6.0 29.761 6.0 36.954002 C 14.738 36.954002 23.477 36.954002 32.212997 36.954002 C 34.086998 36.954002 35.961998 36.954002 37.836 36.954002 C 37.836 29.761002 37.836 22.568003 37.836 15.375002 L 35.898 15.375002 " fill-opacity="0.4"/>
                <g>
                    <path d="M 41.202 12.483 L 41.329998 12.04 L 16.316 4.817 L 16.188 5.26 L 15.974 5.1980004 L 15.758 5.9450006 L 15.316 5.817001 L 9.767 25.025 L 10.207 25.152 L 10.146 25.363 L 10.628 25.504002 L 36.120003 32.873 L 36.469 31.670002 L 41.948 12.698002 L 41.202 12.483 z M 35.438 31.633 L 35.0 31.505 L 35.067 31.265999 L 35.507 31.393 L 35.438 31.633 z " fill-opacity="0.2"/>
                    <polygon fill="#d6c1aa" points="16.316,4.817 10.767,24.025 35.781,31.254 35.988,30.532 41.33,12.04     "/>
                    <linearGradient x1="235.6953" gradientTransform="matrix(1 0 0 1 -224 -1496)" y1="1514.0361" x2="264.4023" gradientUnits="userSpaceOnUse" y2="1514.0361" xlink:type="simple" xlink:actuate="onLoad" id="SVGID_1_" xlink:show="other">
                        <stop stop-color="#e8e0b5" offset="0"/>
                        <stop stop-color="#ede7cc" offset="1"/>
                    </linearGradient>
                    <polygon fill="url(#SVGID_1_)" points="35.271,30.325 11.696,23.516 16.828,5.747 40.402,12.555     "/>
                    <g>
                        <path d="M 38.836 13.375 L 36.898 13.375 L 29.526999 13.375 L 29.524998 13.375 L 23.323997 13.375 L 20.791998 10.458 L 15.466998 10.458 L 11.695998 23.515999 L 35.272 30.328999 L 38.836 17.982998 C 38.836 16.979998 38.836 16.079998 38.836 15.347998 C 38.836 14.134 38.836 13.375 38.836 13.375 z " fill-opacity="0.2"/>
                    </g>
                    <rect x="15.064" y="8.97" fill-opacity="0.4" transform="matrix(0.9607 0.2775 -0.2775 0.9607 4.8457 -7.051)" fill="#ffffff" width="24.537" height="9.248"/>
                </g>
                <linearGradient x1="245.918" gradientTransform="matrix(1 0 0 1 -224 -1496)" y1="1507.458" x2="245.918" gradientUnits="userSpaceOnUse" y2="1531.9541" xlink:type="simple" xlink:actuate="onLoad" id="SVGID_2_" xlink:show="other">
                    <stop stop-color="#ffe23d" offset="0"/>
                    <stop stop-color="#fad337" offset="0.2239"/>
                    <stop stop-color="#efab26" offset="0.6537"/>
                    <stop stop-color="#e48717" offset="1"/>
                </linearGradient>
                <path fill="url(#SVGID_2_)" d="M 35.898 14.375 C 31.373999 14.375 26.847 14.375 22.323997 14.375 L 19.791998 11.458 L 8.031 11.458 C 6.738 11.458 5.976 13.3 6.009 14.375 L 6.0 14.375 C 6.0 21.568 6.0 28.761 6.0 35.954002 C 14.738 35.954002 23.477 35.954002 32.212997 35.954002 C 34.086998 35.954002 35.961998 35.954002 37.836 35.954002 C 37.836 28.761002 37.836 21.568003 37.836 14.375002 L 35.898 14.375002 "/>
                <path fill="#ffffff" d="M 34.457 15.137 C 30.302 15.137 26.146 15.137 21.991001 15.137 L 19.437 12.25 L 8.637 12.25 C 7.427 12.25 6.82 14.182 6.852 15.137 L 6.844 15.137 C 6.844 18.536 6.844 21.935 6.844 25.334 C 13.792 25.334 20.74 25.334 27.687 25.334 C 30.791 25.334 33.894 25.334 37.0 25.334 C 37.0 21.935 37.0 18.536 37.0 15.137 L 34.457 15.137 " fill-opacity="0.3"/>
            </g>
        </g>
    </g>
    <g>
        <g>
            <path d="M 41.25 29.48 C 40.417 25.213 36.546 22.031 32.191 22.028 C 32.191 22.031 32.191 22.035 32.191 22.039 C 32.190002 22.039 32.190002 22.039 32.189003 22.039 C 32.189003 22.035 32.189003 22.031 32.189003 22.027 C 28.088003 22.027 24.414003 24.814001 23.301003 28.778 C 22.218002 32.637 23.823002 36.795 27.175003 38.966 C 30.220003 40.94 34.233 40.986 37.263004 38.954 C 40.316 36.909 41.956 33.1 41.25 29.48 " fill-opacity="0.2"/>
            <path d="M 32.191 22.029 C 32.191 22.206999 32.191 22.385 32.191 22.563 C 32.190002 22.563 32.190002 22.563 32.189003 22.563 C 32.189003 22.385 32.189003 22.206999 32.189003 22.028 C 28.760002 22.028 25.583004 24.179 24.212002 27.306 C 22.792002 30.546999 23.431002 34.562 25.835001 37.16 C 28.287 39.808 32.182 40.681 35.513 39.267 C 38.82 37.864 41.056 34.482998 40.871002 30.870998 C 40.941 26.106 37.009 22.03 32.191 22.029 " fill-opacity="0.4"/>
            <path fill="#8c8c8c" d="M 32.191 22.029 C 32.191 22.206999 32.191 22.385 32.191 22.563 C 32.190002 22.563 32.190002 22.563 32.189003 22.563 C 32.189003 22.385 32.189003 22.206999 32.189003 22.028 C 27.450003 22.029 23.494003 25.986 23.494003 30.724998 C 23.494003 35.011997 26.757004 38.764 31.012003 39.342 C 35.928 40.009 40.530003 36.276 40.866005 31.321 C 41.202 26.365 37.161 22.03 32.191 22.029 z "/>
            <linearGradient x1="346.1914" gradientTransform="matrix(1 0 0 1 -314.002 -1627.0039)" y1="1649.5664" x2="346.1914" gradientUnits="userSpaceOnUse" y2="1665.8779" xlink:type="simple" xlink:actuate="onLoad" id="SVGID_3_" xlink:show="other">
                <stop stop-color="#e6e6e8" offset="0"/>
                <stop stop-color="#d4d6db" offset="1"/>
            </linearGradient>
            <path fill="url(#SVGID_3_)" d="M 32.189 22.563 C 37.21 22.563 41.115997 27.251999 40.217 32.192 C 39.325 37.11 34.027 40.120003 29.34 38.376 C 25.675 37.012 23.461 33.105 24.158 29.258999 C 24.855 25.426 28.3 22.563 32.189 22.563 "/>
            <linearGradient x1="346.2422" gradientTransform="matrix(1 0 0 1 -314.002 -1627.0039)" y1="1649.999" x2="346.2422" gradientUnits="userSpaceOnUse" y2="1657.7285" xlink:type="simple" xlink:actuate="onLoad" id="SVGID_4_" xlink:show="other">
                <stop stop-color="#ffffff" offset="0"/>
                <stop stop-color="#e3e8e8" offset="1"/>
            </linearGradient>
            <path fill="url(#SVGID_4_)" d="M 24.531 30.725 C 24.531 26.632 27.802 22.996 31.978 22.996 C 36.121002 22.996 39.949 26.518 39.949 30.725 C 34.898003 30.725 29.849 30.725 24.800001 30.725 C 24.711 30.725 24.62 30.725 24.531 30.725 "/>
            <linearGradient x1="345.959" gradientTransform="matrix(1 0 0 1 -314.002 -1627.0039)" y1="1661.373" x2="345.959" gradientUnits="userSpaceOnUse" y2="1663.792" xlink:type="simple" xlink:actuate="onLoad" id="SVGID_5_" xlink:show="other">
                <stop stop-color="#3687ff" offset="0"/>
                <stop stop-color="#051f7d" offset="1"/>
            </linearGradient>
            <path fill="url(#SVGID_5_)" d="M 31.958 34.369 C 33.518 34.369 33.518 36.788 31.958 36.788 C 30.397999 36.788 30.396 34.369 31.958 34.369 "/>
            <linearGradient x1="346.6836" gradientTransform="matrix(1 0 0 1 -314.002 -1627.0039)" y1="1652.1338" x2="346.6836" gradientUnits="userSpaceOnUse" y2="1660.2725" xlink:type="simple" xlink:actuate="onLoad" id="SVGID_6_" xlink:show="other">
                <stop stop-color="#3687ff" offset="0"/>
                <stop stop-color="#051f7d" offset="1"/>
            </linearGradient>
            <path fill="url(#SVGID_6_)" d="M 29.744 26.805 C 30.652 26.535 31.848 26.218 32.758 26.643 C 33.77 27.116 33.617 28.407 33.047 29.16 C 32.318 30.123 31.168001 30.778 31.006 32.075 C 30.960001 32.440002 30.985 32.821 30.985 33.190002 C 30.985 33.319004 31.536001 33.251003 31.649 33.251003 C 32.02 33.251003 32.391 33.251003 32.764 33.251003 C 33.067 33.251003 32.927 32.886 32.927 32.628002 C 32.927 31.502003 34.088997 30.774002 34.759 30.000002 C 36.229 28.293001 35.822998 25.778002 33.471 25.261002 C 32.464 25.038002 31.397001 25.129002 30.395 25.335001 C 30.325 25.349 29.746 25.45 29.746 25.500002 C 29.746 25.631002 29.746 25.763002 29.746 25.894001 C 29.744 26.195 29.744 26.499 29.744 26.805 "/>
        </g>
    </g>
</svg>
