<?xml version="1.0" encoding="UTF-8"?>
<svg xmlns="http://www.w3.org/2000/svg" xmlns:xlink="http://www.w3.org/1999/xlink" contentScriptType="text/ecmascript" zoomAndPan="magnify" baseProfile="tiny" contentStyleType="text/css" version="1.1" width="44px" preserveAspectRatio="xMidYMid meet" viewBox="0 0 44 44" height="44px" x="0px" y="0px">
    <rect width="44" fill="none" height="44"/>
    <path d="M 35.898 14.374 L 35.898 14.374 C 31.523998 14.375 27.151 14.375 22.776999 14.375 L 20.246998 11.458 C 17.749998 11.458 15.251998 11.458 12.754997 11.458 C 11.369997 11.458 9.984997 11.458 8.599997 11.458 C 6.7919965 11.458 5.5529966 12.589001 5.116997 14.375 L 4.999 14.375 C 4.999 22.234001 4.999 30.093 4.999 37.951 C 13.558001 37.951 22.118 37.956 30.677 37.952 C 33.396 37.951 36.115 37.95 38.835 37.95 C 38.835 30.092001 38.835 22.233002 38.835 14.374001 L 35.898 14.374001 " fill-opacity="0.2"/>
    <path d="M 35.898 15.375 C 31.373999 15.375 26.848 15.375 22.323997 15.375 L 19.791998 12.458 L 8.031 12.458 C 6.738 12.458 5.976 14.3 6.009 15.375 L 6.0 15.375 C 6.0 22.568 6.0 29.761 6.0 36.954002 C 14.738 36.954002 23.476 36.954002 32.212997 36.954002 C 34.086998 36.954002 35.961998 36.954002 37.836 36.954002 C 37.836 29.761002 37.836 22.568003 37.836 15.375002 L 35.898 15.375002 " fill-opacity="0.4"/>
    <g>
        <path d="M 41.202 12.483 L 41.329998 12.04 L 16.316 4.817 L 16.188 5.26 L 15.974 5.1980004 L 15.758 5.9450006 L 15.316 5.817001 L 9.767 25.025 L 10.207 25.152 L 10.146 25.363 L 10.628 25.504002 L 36.120003 32.873 L 36.469 31.670002 L 41.948 12.698002 L 41.202 12.483 z M 35.438 31.633 L 34.996998 31.505 L 35.065998 31.265999 L 35.507 31.393 L 35.438 31.633 z " fill-opacity="0.2"/>
        <polygon fill="#d6c1aa" points="16.316,4.817 10.767,24.025 35.781,31.254 35.988,30.532 41.33,12.04  "/>
        <linearGradient x1="67.6953" gradientTransform="matrix(1 0 0 -1 -56 -102)" y1="-120.0361" x2="96.4023" gradientUnits="userSpaceOnUse" y2="-120.0361" xlink:type="simple" xlink:actuate="onLoad" id="SVGID_1_" xlink:show="other">
            <stop stop-color="#e8e0b5" offset="0"/>
            <stop stop-color="#ede7cc" offset="1"/>
        </linearGradient>
        <polygon fill="url(#SVGID_1_)" points="35.271,30.325 11.696,23.516 16.828,5.747 40.402,12.555  "/>
        <g>
            <path d="M 38.836 13.375 L 36.898 13.375 L 29.526999 13.375 L 29.524998 13.375 L 23.323997 13.375 L 20.791998 10.458 L 15.466998 10.458 L 11.695998 23.515999 L 35.272 30.325998 L 38.836 17.98 C 38.836 16.977 38.836 16.077 38.836 15.344999 C 38.836 14.134 38.836 13.375 38.836 13.375 z " fill-opacity="0.2"/>
        </g>
        <rect x="15.062" y="8.97" fill-opacity="0.4" transform="matrix(-0.9607 -0.2775 0.2775 -0.9607 49.8173 34.2386)" fill="#ffffff" width="24.539" height="9.248"/>
    </g>
    <linearGradient x1="77.918" gradientTransform="matrix(1 0 0 -1 -56 -102)" y1="-113.458" x2="77.918" gradientUnits="userSpaceOnUse" y2="-137.9541" xlink:type="simple" xlink:actuate="onLoad" id="SVGID_2_" xlink:show="other">
        <stop stop-color="#ffe23d" offset="0"/>
        <stop stop-color="#fad337" offset="0.2239"/>
        <stop stop-color="#efab26" offset="0.6537"/>
        <stop stop-color="#e48717" offset="1"/>
    </linearGradient>
    <path fill="url(#SVGID_2_)" d="M 35.898 14.375 C 31.373999 14.375 26.848 14.375 22.323997 14.375 L 19.791998 11.458 L 8.031 11.458 C 6.738 11.458 5.976 13.3 6.009 14.375 L 6.0 14.375 C 6.0 21.568 6.0 28.761 6.0 35.954002 C 14.738 35.954002 23.476 35.954002 32.212997 35.954002 C 34.086998 35.954002 35.961998 35.954002 37.836 35.954002 C 37.836 28.761002 37.836 21.568003 37.836 14.375002 L 35.898 14.375002 "/>
    <path fill="#ffffff" d="M 34.457 15.137 C 30.302 15.137 26.146 15.137 21.991001 15.137 L 19.437 12.25 L 8.637 12.25 C 7.427 12.25 6.82 14.182 6.852 15.137 L 6.844 15.137 C 6.844 18.536 6.844 21.935 6.844 25.334 C 13.792 25.334 20.74 25.334 27.687 25.334 C 30.791 25.334 33.895 25.334 37.0 25.334 C 37.0 21.935 37.0 18.536 37.0 15.137 L 34.457 15.137 " fill-opacity="0.3"/>
</svg>
