<?xml version="1.0" encoding="UTF-8"?>
<svg xmlns="http://www.w3.org/2000/svg" xmlns:xlink="http://www.w3.org/1999/xlink" contentScriptType="text/ecmascript" zoomAndPan="magnify" baseProfile="tiny" contentStyleType="text/css" version="1.1" width="44px" preserveAspectRatio="xMidYMid meet" viewBox="0 0 44 44" height="44px" x="0px" y="0px">
    <g>
        <path fill="none" d="M 0.0 0.0 C 13.152 0.0 26.305 0.0 39.455 0.0 C 40.84 0.0 42.223003 0.011 43.605003 -0.041 C 44.363 -0.069 44.0 2.989 44.0 3.555 C 44.0 6.859 44.0 10.163 44.0 13.468 C 44.0 20.11 44.0 26.751 44.0 33.391 C 44.0 36.641 44.0 39.889 44.0 43.139 C 44.0 43.645 44.163 43.992 43.592 44.035 C 43.207 44.063 42.819 44.034 42.434 44.012 C 40.938 43.924 39.413998 44.002003 37.913998 44.002003 C 31.371998 44.002003 24.828999 44.002003 18.285997 44.002003 C 14.999997 44.002003 11.713997 44.002003 8.427998 44.002003 C 5.7839975 44.002003 3.0419974 44.231003 0.40899754 44.035004 C -0.18 43.989 0.0 43.6 0.0 43.085 C 0.0 42.288 0.0 41.492 0.0 40.695 C 0.0 38.968998 0.0 37.245 0.0 35.519 C 0.0 32.202 0.0 28.882 0.0 25.566002 C 0.0 17.044 0.0 8.522 0.0 0.0 "/>
    </g>
    <g>
        <path d="M 4.088 22.139 C 4.088 12.813 11.559999 4.6100006 20.856998 3.7849998 C 30.267998 2.9499998 39.204 9.805 40.711998 19.153 C 42.218 28.485 36.024998 37.903 26.8 40.072998 C 17.328999 42.301 7.338999 36.445 4.7529984 27.051998 C 4.313 25.453 4.088 23.797 4.088 22.139 " fill-opacity="0.2"/>
        <path d="M 39.532 22.145 C 39.532 31.434 31.527 39.314003 22.239002 39.158 C 17.720001 39.082 13.371002 37.105 10.256002 33.845 C 7.312002 30.766 5.1080027 26.081001 5.5230026 21.728 C 5.7800026 19.029001 8.5180025 17.583 10.799003 16.788 C 13.569002 15.823 16.565002 15.406 19.477003 15.177 C 23.802002 14.837 28.243004 15.061 32.426003 16.271 C 35.186 17.069 39.532 18.633 39.532 22.145 " fill-opacity="0.5"/>
        <linearGradient x1="848.5313" gradientTransform="matrix(1 0 0 1 -826.0107 -2336.0244)" y1="2373.7578" x2="848.5313" gradientUnits="userSpaceOnUse" y2="2339.7363" xlink:type="simple" xlink:actuate="onLoad" id="SVGID_1_" xlink:show="other">
            <stop stop-color="#84d8fd" offset="0"/>
            <stop stop-color="#7dd1fb" offset="0.1127"/>
            <stop stop-color="#6bbef7" offset="0.2752"/>
            <stop stop-color="#4d9ff0" offset="0.4679"/>
            <stop stop-color="#2676e7" offset="0.6703"/>
            <stop stop-color="#2676e7" offset="1"/>
        </linearGradient>
        <path fill="url(#SVGID_1_)" d="M 22.52 3.712 C 31.807 3.712 39.686 11.717 39.53 21.004 C 39.374 30.288 31.244999 38.039 21.960999 37.725 C 12.893 37.419 5.359 29.52 5.512 20.443 C 5.664 11.371 13.444 3.712 22.52 3.712 "/>
        <linearGradient x1="21.7515" y1="35.6318" x2="21.7515" gradientUnits="userSpaceOnUse" y2="5.4416" xlink:type="simple" xlink:actuate="onLoad" id="SVGID_2_" xlink:show="other">
            <stop stop-color="#c5eaff" offset="0"/>
            <stop stop-color="#7ac6f7" offset="1"/>
        </linearGradient>
        <path fill="url(#SVGID_2_)" d="M 35.667 21.843 C 35.626 21.539 35.223 21.539 34.994 21.543001 C 34.545 21.549002 34.413 21.504002 34.109 21.175001 C 33.658 20.685001 32.423 21.052002 31.822 21.02 C 31.332 20.994001 31.426 20.834 31.134 20.54 C 30.768002 20.176 30.768002 20.359001 30.407001 20.504002 C 29.786001 20.756002 28.719002 20.423002 28.04 20.395002 C 27.228 20.361002 27.480001 20.835003 26.896 21.209002 C 26.65 21.367002 26.226 22.354002 25.883 22.166002 C 25.209 21.794003 24.441 22.458002 23.789999 21.891003 C 23.306 21.468002 22.74 20.694002 22.019 20.895002 C 21.324999 21.088003 21.339998 19.874002 20.56 20.284002 C 20.35 20.395002 20.477999 20.645002 20.371 20.809002 C 20.194 21.079002 19.813 21.260002 19.524 21.374002 C 18.888 21.627003 18.256 20.963003 17.971 20.451002 C 17.618 19.817001 18.407001 20.145002 18.029001 19.624002 C 17.959002 19.527002 17.693 19.309002 17.859001 19.194002 C 18.212002 18.950003 17.985 18.771002 18.173 18.434002 C 18.147001 18.480001 18.991001 18.454002 19.076 18.454002 C 19.221 18.454002 19.668 18.564003 19.636 18.277002 C 19.631 18.225002 19.513 17.757002 19.595 17.757002 C 19.734999 17.757002 20.796 17.661001 20.774 17.634003 C 20.886 17.773003 21.106 17.760002 21.257 17.727003 C 21.462 17.682003 21.91 18.292004 22.03 18.413004 C 22.502 17.975004 21.673 17.459003 21.515001 17.081003 C 21.367 16.726004 21.774002 16.418003 21.621002 16.065002 C 21.453003 15.674003 21.842003 15.469003 22.128002 15.294003 C 22.640001 14.983003 22.872002 14.402002 23.011002 13.842003 C 23.086002 13.544003 23.136002 13.231003 23.119001 12.922003 C 23.089 12.3600025 22.485 12.579002 22.038002 12.579002 C 22.043001 12.2350025 22.365002 12.097002 22.665003 12.112002 C 23.165003 12.136003 23.380003 11.743002 23.692003 11.437002 C 24.075003 12.215002 24.739004 11.199002 24.854004 10.854002 C 24.971004 10.497002 25.227003 10.146002 25.561005 9.963002 C 25.934004 9.758002 26.006004 9.318003 26.291004 9.033002 C 25.848003 8.836002 25.352005 8.807002 24.904005 8.618002 C 24.382006 8.397002 24.038006 7.822002 23.771006 7.347002 C 23.54 6.93 23.536 6.39 23.2 6.029 C 22.923 5.731 22.402 5.585 22.023 5.488 C 21.447 5.34 20.162 5.843 20.4 6.624 C 20.546 7.103 21.338 8.701 20.585 9.1189995 C 20.355 9.245999 19.824 9.24 19.707998 9.5199995 C 19.590998 9.801999 20.151 10.134999 19.874998 10.488999 C 19.282997 11.249999 19.139997 9.842999 18.843998 9.789 C 18.438997 9.716 18.220999 10.009 17.774998 9.684999 C 17.501997 9.4869995 17.771997 9.169999 17.224998 9.249999 C 16.786999 9.313999 16.55 9.323999 16.200998 9.010999 C 15.956998 8.792998 15.557999 8.258999 16.035997 8.049998 C 16.535997 7.8309984 17.883997 6.1999984 16.813997 5.9839983 C 16.688997 5.958998 16.557997 5.9629984 16.424997 5.978998 C 12.611998 7.6159983 9.492997 10.716998 7.8259974 14.519999 C 7.9679976 14.636998 8.098997 14.765999 8.221997 14.977999 C 8.509997 15.474998 8.760997 15.477999 9.251997 15.692999 C 9.814997 15.939999 9.940997 15.751999 9.940997 16.418 C 9.940997 17.210999 10.354997 18.896 11.312997 18.896 C 11.8639965 18.896 12.125997 19.268 12.480997 19.624 C 12.897997 20.041 13.322997 20.346 13.879997 20.550001 C 13.693997 20.470001 13.530997 20.358002 13.387998 20.215002 C 14.092998 19.513002 15.146997 21.026003 15.630998 21.546001 C 16.380997 22.353 17.776997 22.436 18.835999 22.307001 C 19.131998 22.271002 19.369 22.070002 19.567999 21.861002 C 19.862 21.552002 19.88 21.554003 20.185 21.561003 C 20.512999 21.568003 20.748 21.025003 21.222 21.097002 C 21.401001 21.124002 22.698 21.424002 22.711 21.529001 C 22.775 22.083002 25.195 22.554 24.941 23.128002 C 24.758 23.536003 24.312 23.701002 24.316 24.204002 C 24.318 24.459002 24.254 25.188002 24.478 25.376003 C 24.749 25.601004 25.060001 25.798004 25.400002 25.873003 C 25.796001 25.960003 25.921001 26.688004 26.166002 26.977003 C 26.456003 27.323004 26.741003 27.481003 27.178001 27.485003 C 27.243002 27.487003 28.055002 27.528002 28.055002 27.528002 C 27.883001 27.727001 28.296001 27.951002 28.465002 28.118002 C 28.624002 28.276003 28.532001 28.696001 28.516003 28.888002 C 28.457003 29.494003 28.455002 30.245003 28.805002 30.771002 C 29.258001 31.459002 29.217003 31.832003 29.171001 32.638 C 29.162 32.801 29.029001 33.851 29.233002 33.896 C 29.328001 33.917 29.580002 33.543 29.645002 33.478 C 29.723001 33.917 30.280003 34.051003 29.942003 34.539 C 29.880003 34.628002 29.873003 34.737003 29.891003 34.845 C 30.446003 34.547 30.979002 34.212 31.495003 33.853 C 31.398003 33.738 31.248003 33.54 31.255003 33.467 C 31.255003 33.384 31.995003 33.444 31.842003 33.124 C 31.764004 32.961002 31.174004 32.645 31.651003 32.473 C 31.770002 32.43 32.102 32.401 32.074 32.196 C 32.026 31.849998 32.341 31.831 32.577 31.626999 C 33.153 31.130999 33.063 30.953 32.538 30.480999 C 32.158997 30.140999 32.760998 30.217999 32.971996 30.213999 C 33.581997 30.203 33.200996 29.585999 33.465996 29.227 C 33.752995 28.835 34.583996 28.234999 34.115997 27.678999 C 33.804996 27.310999 34.309 26.633 34.003 26.322998 C 34.475998 26.799997 35.028 25.896997 35.271 25.589998 C 35.81 24.901999 35.523 24.401999 35.306 23.659998 C 35.113 23.004 35.756 22.486 35.667 21.843 z "/>
        <linearGradient x1="848.4512" gradientTransform="matrix(1 0 0 1 -826.0107 -2336.0244)" y1="2356.7256" x2="848.4512" gradientUnits="userSpaceOnUse" y2="2340.4219" xlink:type="simple" xlink:actuate="onLoad" id="SVGID_3_" xlink:show="other">
            <stop stop-color="#26bfff" offset="0"/>
            <stop stop-color="#43c8ff" offset="0.0464"/>
            <stop stop-color="#6fd5ff" offset="0.1258"/>
            <stop stop-color="#96e0ff" offset="0.2112"/>
            <stop stop-color="#b6eaff" offset="0.3018"/>
            <stop stop-color="#d1f1ff" offset="0.3987"/>
            <stop stop-color="#e5f7ff" offset="0.5044"/>
            <stop stop-color="#f4fcff" offset="0.6233"/>
            <stop stop-color="#fcfeff" offset="0.7666"/>
            <stop stop-color="#ffffff" offset="1"/>
        </linearGradient>
        <path fill="url(#SVGID_3_)" d="M 6.137 20.725 C 6.137 11.927 13.641001 4.422001 22.439999 4.422001 C 31.237999 4.422001 38.742996 11.926001 38.742996 20.725 C 27.875 20.725 17.006 20.725 6.137 20.725 " fill-opacity="0.7"/>
    </g>
</svg>
