<?xml version="1.0" encoding="UTF-8"?>
<svg xmlns="http://www.w3.org/2000/svg" xmlns:xlink="http://www.w3.org/1999/xlink" contentScriptType="text/ecmascript" zoomAndPan="magnify" baseProfile="tiny" contentStyleType="text/css" version="1.1" width="42px" preserveAspectRatio="xMidYMid meet" viewBox="0 0 42 29" height="29px" x="0px" y="0px">
    <g>
        <g>
            <g>
                <path d="M 28.593 2.999 L 5.412 2.999 C 4.1870003 2.999 3.1900003 3.994 3.1900003 5.217 L 3.1900003 21.055 C 3.1900003 22.28 4.1870003 23.276001 5.412 23.276001 L 28.593 23.276001 C 29.817001 23.276001 30.811 22.28 30.811 21.055 L 30.811 5.216 C 30.811 3.994 29.814 2.999 28.593 2.999 z " fill-opacity="0.2"/>
                <path d="M 29.811 21.055 C 29.811 21.725 29.264 22.276001 28.593 22.276001 L 5.412 22.276001 C 4.7390003 22.276001 4.19 21.725 4.19 21.055 L 4.19 5.216 C 4.19 4.546 4.7390003 3.9980001 5.412 3.9980001 L 28.593 3.9980001 C 29.264 3.9980001 29.811 4.545 29.811 5.216 L 29.811 21.055 z " fill-opacity="0.4"/>
                <linearGradient x1="429" gradientTransform="matrix(1 0 0 1 -412 -763)" y1="764.7832" x2="429" gradientUnits="userSpaceOnUse" y2="790.3693" xlink:type="simple" xlink:actuate="onLoad" id="SVGID_1_" xlink:show="other">
                    <stop stop-color="#17e2ff" offset="0"/>
                    <stop stop-color="#0036a2" offset="1"/>
                </linearGradient>
                <path fill="url(#SVGID_1_)" d="M 29.811 20.055 C 29.811 20.725 29.264 21.276001 28.593 21.276001 L 5.412 21.276001 C 4.7390003 21.276001 4.19 20.725 4.19 20.055 L 4.19 4.216 C 4.19 3.546 4.7390003 2.9980001 5.412 2.9980001 L 28.593 2.9980001 C 29.264 2.9980001 29.811 3.545 29.811 4.216 L 29.811 20.055 z "/>
                <rect x="6.119" width="22.691" y="15.156" height="3.979"/>
                <path fill="#ffffff" d="M 28.811 8.023 L 28.811 4.216 C 28.811 4.098 28.711 3.9980001 28.593 3.9980001 L 5.412 3.9980001 C 5.2910004 3.9980001 5.19 4.098 5.19 4.216 L 5.19 17.768 L 28.811 8.023 z " fill-opacity="0.3"/>
            </g>
            <g>
                <path d="M 36.593 6.382 L 13.412 6.382 C 12.186999 6.382 11.19 7.377 11.19 8.6 L 11.19 24.437 C 11.19 25.663 12.186999 26.659 13.412 26.659 L 36.593 26.659 C 37.816998 26.659 38.810997 25.663 38.810997 24.437 L 38.810997 8.6 C 38.811 7.377 37.814 6.382 36.593 6.382 z " fill-opacity="0.2"/>
                <path d="M 37.811 24.438 C 37.811 25.11 37.264 25.66 36.593002 25.66 L 13.412 25.66 C 12.738999 25.66 12.19 25.11 12.19 24.438 L 12.19 8.6 C 12.19 7.9300003 12.738999 7.3820004 13.412 7.3820004 L 36.593 7.3820004 C 37.264 7.3820004 37.810997 7.9290004 37.810997 8.6 L 37.810997 24.438 z " fill-opacity="0.4"/>
                <linearGradient x1="437" gradientTransform="matrix(1 0 0 1 -412 -763)" y1="768.166" x2="437" gradientUnits="userSpaceOnUse" y2="793.7515" xlink:type="simple" xlink:actuate="onLoad" id="SVGID_2_" xlink:show="other">
                    <stop stop-color="#ffe23d" offset="0"/>
                    <stop stop-color="#fad337" offset="0.2239"/>
                    <stop stop-color="#efab26" offset="0.6537"/>
                    <stop stop-color="#e48717" offset="1"/>
                </linearGradient>
                <path fill="url(#SVGID_2_)" d="M 37.811 23.438 C 37.811 24.11 37.264 24.66 36.593002 24.66 L 13.412 24.66 C 12.738999 24.66 12.19 24.11 12.19 23.438 L 12.19 7.6 C 12.19 6.93 12.738999 6.382 13.412 6.382 L 36.593 6.382 C 37.264 6.382 37.810997 6.929 37.810997 7.6 L 37.810997 23.438 z "/>
                <path fill="#ffffff" d="M 36.811 11.406 L 36.811 7.6 C 36.811 7.482 36.711002 7.382 36.593002 7.382 L 13.412 7.382 C 13.290999 7.382 13.19 7.482 13.19 7.6 L 13.19 21.15 L 36.811 11.406 z " fill-opacity="0.3"/>
            </g>
            <rect x="13.189" width="23.622" fill="#ffffff" y="19.904" height="2.371"/>
        </g>
        <g>
            <rect width="42" fill="none" y="-0.01" height="29" display="none"/>
        </g>
    </g>
    <g>
        <g>
            <path d="M 41.177 24.918 C 40.981 24.25 40.505997 23.66 40.155 23.067999 C 39.717 22.329998 39.281 21.591 38.842 20.852999 C 38.002 19.438 37.161 18.022 36.321 16.606998 C 35.592 15.378999 34.86 14.154999 34.148 12.918999 C 33.682 12.109999 33.104 11.1589985 32.146 10.890999 C 31.035 10.579999 30.117 11.292999 29.534 12.168999 C 28.798 13.274999 28.18 14.478998 27.501 15.622999 C 25.828 18.441 24.154 21.261 22.48 24.079998 C 21.998 24.891998 21.754 25.814999 22.265999 26.683998 C 22.648998 27.333998 23.369999 27.662998 24.095 27.759998 C 25.174 27.903997 26.323 27.793999 27.408998 27.793999 C 28.597998 27.793999 29.789999 27.793999 30.978998 27.793999 C 33.341 27.793999 35.704 27.794998 38.065 27.794998 C 38.984997 27.794998 39.857 27.871998 40.558 27.171999 C 41.138 26.595 41.411 25.711 41.177 24.918 " fill-opacity="0.2"/>
            <path d="M 40.571 24.719 C 40.326 24.073 39.906 23.51 39.535 22.933 C 39.086 22.233 38.678 21.499 38.253 20.783 C 37.406998 19.36 36.560997 17.935001 35.716 16.511002 C 35.005 15.314001 34.321 14.108002 33.634 12.899002 C 33.138 12.023002 32.288 10.961002 31.137 11.368002 C 30.089998 11.739002 29.528 13.136002 29.008 14.011002 C 28.163 15.435001 27.319 16.857002 26.473999 18.280003 C 25.636 19.689003 24.796 21.096003 23.967 22.510002 C 23.602999 23.129002 23.200998 23.727001 22.838 24.346003 C 22.540998 24.855003 22.337 25.423002 22.487 26.012003 C 22.852 27.442003 24.284 27.351004 25.458 27.352003 C 26.99 27.352003 28.521 27.352003 30.054 27.352003 C 31.638 27.352003 33.224 27.352003 34.808002 27.352003 C 35.601 27.352003 36.393 27.353003 37.187004 27.353003 C 37.579002 27.353003 37.973003 27.353003 38.367004 27.353003 C 38.529003 27.353003 38.959003 27.453003 39.042004 27.248003 C 39.049004 27.676003 40.290005 26.855003 40.436005 26.670004 C 40.889 26.089 40.84 25.368 40.571 24.719 " fill-opacity="0.4"/>
            <linearGradient x1="31.623" y1="10.8179" x2="31.623" gradientUnits="userSpaceOnUse" y2="26.9028" xlink:type="simple" xlink:actuate="onLoad" id="SVGID_3_" xlink:show="other">
                <stop stop-color="#ffffff" offset="0"/>
                <stop stop-color="#c1c1c1" offset="1"/>
            </linearGradient>
            <path fill="url(#SVGID_3_)" d="M 40.766 24.893 C 40.621998 23.871 39.877 23.046999 39.368 22.191 C 37.678 19.341 35.985 16.493 34.294 13.643 C 33.773 12.764999 33.397 11.6119995 32.475998 11.059 C 31.412998 10.42 30.485998 11.162 29.907997 12.042 C 28.178997 14.68 26.664997 17.486 25.053997 20.2 C 24.657997 20.865002 24.264997 21.534 23.870996 22.201 C 23.484997 22.855 23.016996 23.481 22.682997 24.162 C 22.072996 25.404001 22.790997 26.748001 24.189997 26.853 C 25.337997 26.94 26.524998 26.851 27.675997 26.851 C 28.996996 26.851 30.318996 26.851 31.638996 26.851 C 32.957996 26.851 34.279995 26.853 35.599995 26.853 C 36.259995 26.853 36.919994 26.853 37.578995 26.853 C 37.817993 26.853 38.931995 27.018002 39.041996 26.748001 C 39.047997 27.140001 40.190994 26.44 40.340996 26.28 C 40.689 25.901 40.837 25.4 40.766 24.893 z "/>
            <linearGradient x1="439.6504" gradientTransform="matrix(1 0 0 -1 -408.002 -1146.0039)" y1="-1158.1978" x2="439.6504" gradientUnits="userSpaceOnUse" y2="-1171.5596" xlink:type="simple" xlink:actuate="onLoad" id="SVGID_4_" xlink:show="other">
                <stop stop-color="#3196db" offset="0"/>
                <stop stop-color="#15386b" offset="1"/>
            </linearGradient>
            <path fill="url(#SVGID_4_)" d="M 39.378 24.892 C 37.696 22.059 36.015 19.227001 34.333 16.394001 C 33.93 15.714001 33.526 15.036001 33.122 14.355001 C 32.742 13.7160015 32.41 12.9400015 31.918001 12.380001 C 31.437 11.831001 31.137001 12.637001 30.918001 13.004001 C 30.498001 13.713 30.077002 14.4210005 29.656002 15.1310005 C 27.984001 17.946001 26.311003 20.764 24.638002 23.582 C 24.391003 23.998001 23.659002 24.793001 23.874002 25.320002 C 24.019003 25.670002 24.955002 25.53 25.235003 25.516 C 26.047003 25.481 26.855003 25.483 27.668003 25.483 C 30.216003 25.483 32.765003 25.483 35.312004 25.483 C 36.321003 25.483 37.333004 25.458 38.341003 25.49 C 38.698 25.501 39.762 25.524 39.378 24.892 "/>
            <linearGradient x1="439.6484" gradientTransform="matrix(1 0 0 -1 -408.002 -1146.0039)" y1="-1158.7007" x2="439.6484" gradientUnits="userSpaceOnUse" y2="-1166.0986" xlink:type="simple" xlink:actuate="onLoad" id="SVGID_5_" xlink:show="other">
                <stop stop-color="#b3e3ff" offset="0"/>
                <stop stop-color="#156bf0" offset="1"/>
            </linearGradient>
            <path fill="url(#SVGID_5_)" d="M 36.168 20.094 C 35.37 18.749 34.572 17.404 33.772 16.059 C 33.373 15.386 32.972 14.713 32.572998 14.04 C 32.447998 13.8289995 31.864998 12.54 31.575998 12.713 C 31.197998 12.939 30.933998 13.681001 30.723999 14.034 C 30.332998 14.694 29.940998 15.3550005 29.549 16.015 C 28.741 17.375 27.934 18.736 27.125 20.095 C 30.142 20.094 33.154 20.094 36.168 20.094 "/>
            <g>
                <linearGradient x1="31.7852" y1="17.1904" x2="31.7852" gradientUnits="userSpaceOnUse" y2="14.9604" xlink:type="simple" xlink:actuate="onLoad" id="SVGID_6_" xlink:show="other">
                    <stop stop-color="#3196db" offset="0"/>
                    <stop stop-color="#15386b" offset="1"/>
                </linearGradient>
                <path fill="url(#SVGID_6_)" d="M 31.792 17.188 C 31.793 17.188 31.795 17.152 31.798 17.098999 C 31.798 17.106998 31.801 17.119999 31.801 17.126 C 31.812 17.274 32.228 17.122 32.329002 17.074 C 33.272003 16.629 33.161003 15.242999 32.137 14.992 C 31.067001 14.731999 30.018002 16.067999 30.961 16.889 C 31.187 17.092 31.492 17.188 31.792 17.188 z "/>
                <linearGradient x1="31.4492" y1="24.6709" x2="31.4492" gradientUnits="userSpaceOnUse" y2="17.25" xlink:type="simple" xlink:actuate="onLoad" id="SVGID_7_" xlink:show="other">
                    <stop stop-color="#3196db" offset="0"/>
                    <stop stop-color="#15386b" offset="1"/>
                </linearGradient>
                <path fill="url(#SVGID_7_)" d="M 32.921 18.47 C 32.921 18.300999 33.047 17.428999 32.875 17.327 C 32.606 17.167 31.93 17.306 31.625 17.306 C 31.116 17.306 30.563 17.239 30.061 17.291 C 29.852001 17.312 29.965 18.34 29.943 18.550001 C 29.900002 18.953001 30.105001 18.903002 30.423 18.898 C 30.662 18.895 30.687 18.887001 30.687 19.142 C 30.687 19.403 30.687 19.66 30.687 19.92 C 30.689001 21.139 30.689001 22.359 30.689001 23.58 C 30.689001 23.811 30.512001 24.784 30.967001 24.66 C 31.014002 24.647 31.031 24.624 31.043001 24.598 C 31.043001 24.605999 31.042002 24.609 31.042002 24.618 C 31.566002 24.618 32.091003 24.622 32.615 24.618 C 33.053 24.616 32.921 24.476 32.921 24.021 C 32.921 23.428 32.921 22.836 32.921 22.244 C 32.921 20.986 32.921 19.729 32.921 18.47 z M 31.048 24.504 C 31.028 24.419 30.983 24.323 31.042 24.264 C 31.157 24.264 31.272 24.264 31.388 24.264 C 31.121 24.265 31.061 24.3 31.048 24.504 z "/>
            </g>
            <linearGradient x1="439.4648" gradientTransform="matrix(1 0 0 -1 -408.002 -1146.0039)" y1="-1161.3125" x2="439.4648" gradientUnits="userSpaceOnUse" y2="-1170.2695" xlink:type="simple" xlink:actuate="onLoad" id="SVGID_8_" xlink:show="other">
                <stop stop-color="#ffffff" offset="0"/>
                <stop stop-color="#cee3ea" offset="1"/>
            </linearGradient>
            <path fill="url(#SVGID_8_)" d="M 31.042 24.264 C 31.042 22.512 31.042 20.758999 31.042 19.006 C 31.042 18.776001 31.142 18.543001 30.861 18.57 C 30.748 18.581 30.313 18.657999 30.313 18.452 C 30.313 18.261 30.312 18.071 30.312 17.881 C 30.314001 17.543001 30.501 17.66 30.815 17.66 C 31.248001 17.66 31.679 17.639 32.111 17.645 C 32.225 17.647001 32.459 17.618 32.558 17.693 C 32.674 17.779001 32.567997 18.725 32.567997 18.892 C 32.567997 20.683 32.567997 22.474 32.567997 24.265 C 32.059 24.266 31.551 24.264 31.042 24.264 M 31.805 16.834 C 30.751 16.834 30.751 15.309 31.805 15.309 C 32.859 15.309 32.863 16.834 31.805 16.834 "/>
        </g>
    </g>
</svg>
