<?xml version="1.0" encoding="UTF-8"?>
<svg xmlns="http://www.w3.org/2000/svg" xmlns:xlink="http://www.w3.org/1999/xlink" contentScriptType="text/ecmascript" zoomAndPan="magnify" baseProfile="tiny" contentStyleType="text/css" version="1.1" width="30px" preserveAspectRatio="xMidYMid meet" viewBox="0 0 30 40" height="40px" x="0px" y="0px">
    <g>
        <g>
            <g>
                <rect width="30" fill="none" height="40"/>
            </g>
        </g>
    </g>
    <g>
        <g>
            <path d="M 2.733 18.974 C 2.735 12.208 8.216 6.729 14.979 6.727 L 14.979 6.727 L 14.979 7.4820004 L 14.979 8.236 C 9.049 8.246 4.252 13.042 4.241 18.973999 L 4.241 18.973999 C 4.252 24.904 9.05 29.7 14.98 29.711 L 14.98 29.711 C 20.911 29.699001 25.708 24.902 25.717 18.973999 L 25.717 18.973999 C 25.708 13.042 20.911 8.245 14.98 8.236 L 14.98 8.236 L 14.98 7.48 L 14.98 6.726 C 21.744999 6.7279997 27.224998 12.208 27.227 18.973999 L 27.227 18.973999 C 27.224998 25.736 21.745998 31.217999 14.98 31.217999 L 14.98 31.217999 C 8.216 31.218 2.735 25.734 2.733 18.974 L 2.733 18.974 z " fill-opacity="0.4"/>
            <path d="M 1.98 18.974 L 2.733 18.974 L 1.98 18.974 C 1.9810001 12.047001 7.397 6.385001 14.226999 5.9940014 L 14.226999 5.9940014 L 14.226999 5.972 L 14.98 5.972 L 15.731999 5.972 L 15.731999 5.993 C 22.562 6.385 27.976 12.044001 27.98 18.973999 L 27.98 18.973999 C 27.976 26.15 22.16 31.968998 14.98 31.968998 L 14.98 31.968998 C 7.8 31.971 1.981 26.15 1.98 18.974 L 1.98 18.974 z M 14.979 30.463 C 21.325 30.465 26.471 25.317 26.473 18.973999 L 26.473 18.973999 C 26.470999 12.876999 21.729 7.8919992 15.733 7.5039988 L 15.733 7.5039988 L 15.733 7.5069985 C 21.727 7.9029984 26.460999 12.879999 26.471 18.973999 L 26.471 18.973999 C 26.46 25.318 21.326 30.451 14.979 30.463 L 14.979 30.463 L 14.979 30.463 L 14.979 30.463 z M 14.976 30.463 C 8.633 30.45 3.499 25.318 3.487 18.974 L 3.487 18.974 L 3.487 18.974 L 3.487 18.974 C 3.488 25.314 8.63 30.461 14.976 30.463 L 14.976 30.463 z M 4.994 18.973 C 5.005 24.486 9.467 28.946999 14.979 28.957 L 14.979 28.957 C 20.494 28.945002 24.954 24.486 24.964 18.974 L 24.964 18.974 C 24.953001 13.459002 20.493 8.998001 14.9800005 8.988001 L 14.9800005 8.988001 C 9.465 8.998 5.004 13.459 4.994 18.973 L 4.994 18.973 z M 3.487 18.97 C 3.499 12.876999 8.232 7.902999 14.226999 7.5059996 L 14.226999 7.5059996 L 14.226999 7.503 C 8.231 7.892 3.49 12.875 3.487 18.97 L 3.487 18.97 z " fill-opacity="0.2"/>
            <path fill="#167000" d="M 2.733 18.221 C 2.735 11.455 8.216 5.974 14.979 5.973 L 14.979 5.973 L 14.979 6.727 L 14.979 7.4820004 C 9.049 7.4920006 4.2510004 12.2890005 4.241 18.221 L 4.241 18.221 C 4.252 24.15 9.05 28.947 14.98 28.957 L 14.98 28.957 C 20.911 28.945002 25.708 24.148 25.717 18.221 L 25.717 18.221 C 25.708 12.289 20.911 7.492 14.98 7.482 L 14.98 7.482 L 14.98 6.727 L 14.98 5.973 C 21.744999 5.974 27.224998 11.455 27.227 18.221 L 27.227 18.221 C 27.224998 24.98 21.745998 30.465 14.98 30.465 L 14.98 30.465 C 8.216 30.465 2.735 24.98 2.733 18.221 L 2.733 18.221 z "/>
            <linearGradient x1="452.9785" gradientTransform="matrix(1 0 0 -1 -438 -986)" y1="-992.7271" x2="452.9785" gradientUnits="userSpaceOnUse" y2="-1015.7109" xlink:type="simple" xlink:actuate="onLoad" id="SVGID_1_" xlink:show="other">
                <stop stop-color="#00c905" offset="0"/>
                <stop stop-color="#007200" offset="1"/>
            </linearGradient>
            <circle fill="url(#SVGID_1_)" r="11.492" cx="14.979" cy="18.219"/>
            <linearGradient x1="453.0508" gradientTransform="matrix(1 0 0 -1 -438 -986)" y1="-993.335" x2="453.0508" gradientUnits="userSpaceOnUse" y2="-1004.2188" xlink:type="simple" xlink:actuate="onLoad" id="SVGID_2_" xlink:show="other">
                <stop stop-color="#c3fc9d" offset="0"/>
                <stop stop-color="#42e200" offset="1"/>
            </linearGradient>
            <path fill="url(#SVGID_2_)" d="M 4.195 18.219 C 4.195 12.208 8.891001 7.335 14.683001 7.335 C 20.475 7.335 25.906 12.208 25.906 18.219 L 4.195 18.219 z "/>
        </g>
    </g>
    <g>
        <polygon fill="#ffffff" fill-opacity="0.3" points="20.297,12.678 20.295,14.093 13.488,25 13.471,24.98 13.453,25 13.488,26.417    23.738,16.124  "/>
        <polygon points="13.488,25 13.471,24.98 13.453,25 20.295,14.093 20.297,12.678 13.473,19.511 9.939,15.975    6.5,19.419 13.488,26.417  " fill-opacity="0.2"/>
        <polygon fill="#ffffff" points="22.326,16.126 20.295,14.093 13.471,20.924 9.939,17.391 7.91,19.419 13.453,25 13.471,24.98    13.488,25  "/>
    </g>
</svg>
