<?xml version="1.0" encoding="UTF-8"?>
<svg xmlns="http://www.w3.org/2000/svg" xmlns:xlink="http://www.w3.org/1999/xlink" contentScriptType="text/ecmascript" zoomAndPan="magnify" baseProfile="tiny" contentStyleType="text/css" version="1.1" width="30px" preserveAspectRatio="xMidYMid meet" viewBox="0 0 30 40" height="40px" x="0px" y="0px">
    <g>
        <g>
            <g>
                <g>
                    <rect width="30" fill="none" height="40"/>
                </g>
            </g>
            <g>
                <g>
                    <path d="M 27.134 28.158 C 27.213001 23.457 27.134 18.748001 27.134 14.045001 L 27.108002 14.045001 L 27.108002 14.026001 L 26.602001 14.026001 L 14.813 5.908 L 2.831 14.045 L 2.302 14.045 C 2.302 18.83 2.302 23.612999 2.302 28.399 L 2.338 28.399 C 2.392 29.776001 2.871 31.078 4.402 31.29 C 11.045 31.29 17.688 31.297 24.33 31.297 C 24.898 31.297 25.482 31.278002 25.993 30.991001 C 26.939 30.454 27.105 29.389002 27.13 28.399002 L 27.133999 28.399002 L 27.133999 28.158 " fill-opacity="0.2"/>
                    <path d="M 26.373 14.759 L 14.81 6.795 C 11.821 8.825 8.833 10.855 5.8430004 12.885 C 5.142 13.360001 4.4430003 13.836 3.7420003 14.312 C 3.5660005 14.431001 3.3890004 14.551001 3.2120004 14.6710005 C 2.9060004 14.8810005 3.0850003 15.454 3.0850003 15.781 C 3.0850003 18.185 3.0850003 20.588001 3.0850003 22.992 C 3.0850003 24.076 3.0850003 25.158 3.0850003 26.242 C 3.0850003 27.191 2.9980004 28.189001 3.1320002 29.136002 C 3.2440002 29.920002 3.6980002 30.449001 4.504 30.563002 C 11.117001 30.563002 17.731 30.563002 24.345999 30.563002 C 24.939999 30.563002 25.534998 30.565002 25.956999 30.084002 C 26.339998 29.653002 26.393 29.026001 26.395998 28.478 C 26.428999 26.999 26.401999 25.515001 26.401999 24.039001 C 26.401999 20.947002 26.401999 17.856 26.401999 14.764002 L 26.373 14.759 " fill-opacity="0.4"/>
                </g>
            </g>
        </g>
        <g>
            <linearGradient x1="462.7412" gradientTransform="matrix(1 0 0 1 -448 -2968)" y1="2974.0625" x2="462.7412" gradientUnits="userSpaceOnUse" y2="2982.0449" xlink:type="simple" xlink:actuate="onLoad" id="SVGID_1_" xlink:show="other">
                <stop stop-color="#ffe34a" offset="0"/>
                <stop stop-color="#ffe34a" offset="0.1813"/>
                <stop stop-color="#ffab00" offset="1"/>
            </linearGradient>
            <polyline fill="url(#SVGID_1_)" points="3.084,14.027 14.81,6.063 26.398,14.045 3.084,14.027   "/>
            <linearGradient x1="462.7432" gradientTransform="matrix(1 0 0 1 -448 -2968)" y1="2982.0264" x2="462.7432" gradientUnits="userSpaceOnUse" y2="2997.8311" xlink:type="simple" xlink:actuate="onLoad" id="SVGID_2_" xlink:show="other">
                <stop stop-color="#ffd75f" offset="0"/>
                <stop stop-color="#df8800" offset="1"/>
            </linearGradient>
            <path fill="url(#SVGID_2_)" d="M 19.582 14.027 C 14.083 14.027 8.582001 14.027 3.0840015 14.027 C 3.0840015 16.772 3.0840015 19.517 3.0840015 22.262001 C 3.0840015 23.908 3.0840015 25.552002 3.0840015 27.2 C 3.0840015 28.355001 3.0280015 29.626001 4.502002 29.831001 C 11.115002 29.831001 17.731003 29.831001 24.344002 29.831001 C 24.559002 29.831001 24.770002 29.831001 24.983002 29.831001 C 26.417002 29.632002 26.403002 28.43 26.403002 27.292002 C 26.403002 25.614002 26.403002 23.941002 26.403002 22.264002 C 26.403002 19.517002 26.403002 16.774002 26.403002 14.0320015 L 19.582 14.027 "/>
            <linearGradient x1="452.958" gradientTransform="matrix(1 0 0 1 -448 -2968)" y1="2988.7754" x2="472.2227" gradientUnits="userSpaceOnUse" y2="2988.7754" xlink:type="simple" xlink:actuate="onLoad" id="SVGID_3_" xlink:show="other">
                <stop stop-color="#e8e0b5" offset="0"/>
                <stop stop-color="#ede7cc" offset="1"/>
            </linearGradient>
            <polyline fill="url(#SVGID_3_)" points="4.958,15.339 24.223,15.339 24.223,26.213 4.958,26.213 4.958,15.339   "/>
            <path fill="#ffffff" d="M 4.409 15.324 L 4.409 16.970001 C 4.582 16.909 4.766 16.879002 4.959 16.883001 L 4.959 15.8740015 L 24.223 15.8740015 L 24.223 16.792002 C 24.411 16.775002 24.595999 16.783 24.772 16.820002 L 24.772 15.325002 L 4.409 15.324 L 4.409 15.324 "/>
            <g>
                <g>
                    <path d="M 6.171 4.931 L 5.736 6.827 L 4.275 13.188 L 3.724 15.584 L 3.612 16.074 L 3.489 16.609 L 3.4020002 16.986 L 3.219 17.783 C 3.6490002 18.005001 4.0220003 18.288 4.334 18.624 L 4.645 17.27 L 4.731 16.895 L 4.855 16.359001 L 4.967 15.870001 L 5.518 13.474001 L 6.98 7.113 L 7.129 6.46 L 25.867 10.7630005 L 23.634 20.482 L 23.428001 21.386 L 23.069002 22.952 L 22.575003 25.105 L 21.921003 24.955 L 21.776003 25.578 L 21.633003 26.198 L 23.529003 26.634 L 24.308002 23.238 L 24.667002 21.673 L 24.874002 20.77 L 27.395002 9.81 L 6.171 4.931 z " fill-opacity="0.2"/>
                </g>
                <path d="M 7.339 8.536 L 7.6320004 7.2630005 L 7.339 8.536 z " fill-opacity="0.4"/>
                <linearGradient x1="15.3022" y1="25.2197" x2="15.3022" gradientUnits="userSpaceOnUse" y2="5.0728" xlink:type="simple" xlink:actuate="onLoad" id="SVGID_4_" xlink:show="other">
                    <stop stop-color="#ececec" offset="0"/>
                    <stop stop-color="#dcdcdc" offset="1"/>
                </linearGradient>
                <path fill="url(#SVGID_4_)" d="M 6.794 5.072 C 5.8120003 9.35 4.828 13.628 3.8450003 17.906 C 3.7510002 18.315 4.2660003 18.516 4.5150003 18.83 C 4.9160004 19.337 5.2030005 19.937 5.3760004 20.559 C 5.4660006 20.882 5.3630004 21.151001 5.6970005 21.228 C 6.0300007 21.305 6.3640003 21.381 6.6970005 21.458 C 7.6110005 21.668 8.525001 21.879 9.439001 22.089 C 12.105001 22.701 14.77 23.315 17.435001 23.927 C 19.310001 24.358 21.184002 24.788 23.058002 25.219 C 23.336002 25.282 23.743002 22.86 23.836002 22.448 C 24.035002 21.579 24.234003 20.711 24.434002 19.842 C 25.042002 17.195 25.651001 14.546999 26.259003 11.898999 C 26.288002 11.773999 26.776003 9.665999 26.770002 9.664999 C 26.266003 9.548999 25.761002 9.432999 25.256002 9.316999 C 19.103 7.902 12.948 6.487 6.794 5.072 "/>
                <linearGradient x1="362.0283" gradientTransform="matrix(0.9746 0.2239 -0.2239 0.9746 -178.8209 -798.0231)" y1="757.1426" x2="362.0283" gradientUnits="userSpaceOnUse" y2="741.1559" xlink:type="simple" xlink:actuate="onLoad" id="SVGID_5_" xlink:show="other">
                    <stop stop-color="#ececec" offset="0"/>
                    <stop stop-color="#dcdcdc" offset="1"/>
                </linearGradient>
                <path fill="url(#SVGID_5_)" d="M 7.482 7.914 L 7.775 6.639 L 7.482 7.914 z "/>
                <linearGradient x1="808.9355" gradientTransform="matrix(0.9746 0.2239 0.2239 -0.9746 -443.3263 -1602.6992)" y1="-1480.8394" x2="808.9355" gradientUnits="userSpaceOnUse" y2="-1467.4634" xlink:type="simple" xlink:actuate="onLoad" id="SVGID_6_" xlink:show="other">
                    <stop stop-color="#ffffff" offset="0"/>
                    <stop stop-color="#ffffff" offset="0.3571"/>
                    <stop stop-color="#0aabff" offset="1"/>
                </linearGradient>
                <path fill="url(#SVGID_6_)" d="M 7.774 6.641 L 4.86 19.324 C 4.942 19.459 5.0080004 19.602 5.076 19.744999 L 22.209 23.682 L 25.205 10.645999 L 7.774 6.641 z "/>
                <g>
                    <g>
                        <linearGradient x1="807.291" gradientTransform="matrix(0.9746 0.2239 0.2239 -0.9746 -443.3263 -1602.6992)" y1="-1467.4639" x2="807.291" gradientUnits="userSpaceOnUse" y2="-1480.8409" xlink:type="simple" xlink:actuate="onLoad" id="SVGID_7_" xlink:show="other">
                            <stop stop-color="#0032bf" offset="0"/>
                            <stop stop-color="#0032bf" offset="0.0714"/>
                            <stop stop-color="#7de0ff" offset="0.9231"/>
                            <stop stop-color="#7de0ff" offset="1"/>
                        </linearGradient>
                        <path fill="url(#SVGID_7_)" d="M 5.65 15.888 L 4.86 19.324 C 4.942 19.459 5.0080004 19.602 5.076 19.744999 L 19.005001 22.945 L 19.875002 19.156 L 5.65 15.888 z "/>
                    </g>
                    <polygon fill="#453e60" points="22.669,20.183 22.727,18.43 18.691,14.128 18.094,14.222 17.559,14.213 16.331,12.8       15.547,13.292 13.492,11.056 12.536,12.216 11.164,11.669 6.313,13.002 5.526,16.424 9.118,17.069     "/>
                    <g>
                        <linearGradient x1="811.7676" gradientTransform="matrix(0.9746 0.2239 0.2239 -0.9746 -443.3263 -1602.6992)" y1="-1470.4878" x2="811.7676" gradientUnits="userSpaceOnUse" y2="-1477.0273" xlink:type="simple" xlink:actuate="onLoad" id="SVGID_8_" xlink:show="other">
                            <stop stop-color="#ffffff" offset="0"/>
                            <stop stop-color="#82d4ff" offset="1"/>
                        </linearGradient>
                        <path fill="url(#SVGID_8_)" d="M 13.421 11.941 C 13.421 11.941 13.464999 13.003 13.431 13.151 C 13.398 13.297 12.554999 13.294 12.554999 13.294 L 12.690999 13.709 L 12.623 14.0 L 12.531 14.401 L 13.239 15.829 C 13.239 15.829 14.349 18.345001 17.333 18.533 C 20.32 18.721 22.591 19.855001 22.591 19.855001 L 22.695 19.402002 L 22.726 18.429003 L 18.957 14.413003 C 18.789001 14.295003 18.659 14.202003 18.595001 14.142003 L 18.445002 14.167003 C 18.392002 14.375003 18.379002 14.822002 18.379002 14.822002 L 17.979002 14.730002 L 17.563002 14.212003 L 17.343002 14.162003 L 16.468002 12.963002 L 16.176003 12.897002 L 15.550002 13.288002 L 15.369002 13.092002 L 15.984002 14.076002 C 15.984002 14.076002 15.666002 13.567002 15.369002 13.092002 L 14.586002 12.241002 L 14.586002 12.241002 L 14.5840025 12.241002 L 14.164002 11.783002 L 13.989002 11.743002 L 13.689002 11.266002 L 13.4920025 11.055001 L 13.407002 11.159001 L 13.625003 11.813002 L 13.421 11.941 z " fill-opacity="0.9"/>
                    </g>
                    <linearGradient x1="805.3164" gradientTransform="matrix(0.9746 0.2239 0.2239 -0.9746 -443.3263 -1602.6992)" y1="-1476.4307" x2="805.3164" gradientUnits="userSpaceOnUse" y2="-1477.896" xlink:type="simple" xlink:actuate="onLoad" id="SVGID_9_" xlink:show="other">
                        <stop stop-color="#a3c600" offset="0"/>
                        <stop stop-color="#0a4d0a" offset="1"/>
                    </linearGradient>
                    <path fill="url(#SVGID_9_)" d="M 15.82 18.609 C 14.827 17.806 8.037 15.988999 5.762 15.398999 L 5.44 16.799 C 8.338 17.477 16.934 19.505 15.82 18.609 z "/>
                    <linearGradient x1="811.3535" gradientTransform="matrix(0.9746 0.2239 0.2239 -0.9746 -443.3263 -1602.6992)" y1="-1476.4658" x2="811.3535" gradientUnits="userSpaceOnUse" y2="-1482.6707" xlink:type="simple" xlink:actuate="onLoad" id="SVGID_10_" xlink:show="other">
                        <stop stop-color="#a8c600" offset="0"/>
                        <stop stop-color="#0a4d0a" offset="1"/>
                    </linearGradient>
                    <path fill="url(#SVGID_10_)" d="M 16.841 18.844 C 16.841 18.844 19.208 19.387 19.727 19.966 C 20.164 20.452 12.349999 20.67 9.492999 20.758 L 22.21 23.68 L 22.914999 20.617 C 22.575998 20.002 22.13 19.177 22.13 19.177 L 16.841 18.844 z "/>
                </g>
                <g>
                    <linearGradient x1="800.7119" gradientTransform="matrix(0.9746 0.2239 0.2239 -0.9746 -443.3263 -1602.6992)" y1="-1473.6641" x2="800.7119" gradientUnits="userSpaceOnUse" y2="-1476.9531" xlink:type="simple" xlink:actuate="onLoad" id="SVGID_11_" xlink:show="other">
                        <stop stop-color="#22c600" offset="0"/>
                        <stop stop-color="#0a4d0a" offset="1"/>
                    </linearGradient>
                    <polygon fill="url(#SVGID_11_)" points="6.989,12.821 5.65,15.888 7.052,16.21     "/>
                    <linearGradient x1="801.9844" gradientTransform="matrix(0.9746 0.2239 0.2239 -0.9746 -443.3263 -1602.6992)" y1="-1471.6055" x2="801.9844" gradientUnits="userSpaceOnUse" y2="-1476.9521" xlink:type="simple" xlink:actuate="onLoad" id="SVGID_12_" xlink:show="other">
                        <stop stop-color="#22c600" offset="0"/>
                        <stop stop-color="#0a4d0a" offset="1"/>
                    </linearGradient>
                    <polygon fill="url(#SVGID_12_)" points="8.627,11.086 6.451,16.072 8.732,16.596     "/>
                    <linearGradient x1="802.9063" gradientTransform="matrix(0.9746 0.2239 0.2239 -0.9746 -443.3263 -1602.6992)" y1="-1472.6938" x2="802.9063" gradientUnits="userSpaceOnUse" y2="-1476.9541" xlink:type="simple" xlink:actuate="onLoad" id="SVGID_13_" xlink:show="other">
                        <stop stop-color="#22c600" offset="0"/>
                        <stop stop-color="#0a4d0a" offset="1"/>
                    </linearGradient>
                    <polygon fill="url(#SVGID_13_)" points="9.314,12.359 7.58,16.332 9.398,16.749     "/>
                    <linearGradient x1="803.4668" gradientTransform="matrix(0.9746 0.2239 0.2239 -0.9746 -443.3263 -1602.6992)" y1="-1473.7168" x2="803.4668" gradientUnits="userSpaceOnUse" y2="-1476.9526" xlink:type="simple" xlink:actuate="onLoad" id="SVGID_14_" xlink:show="other">
                        <stop stop-color="#22c600" offset="0"/>
                        <stop stop-color="#0a4d0a" offset="1"/>
                    </linearGradient>
                    <polygon fill="url(#SVGID_14_)" points="9.662,13.49 8.345,16.508 9.727,16.825     "/>
                    <linearGradient x1="804.2393" gradientTransform="matrix(0.9746 0.2239 0.2239 -0.9746 -443.3263 -1602.6992)" y1="-1473.7168" x2="804.2393" gradientUnits="userSpaceOnUse" y2="-1476.9541" xlink:type="simple" xlink:actuate="onLoad" id="SVGID_15_" xlink:show="other">
                        <stop stop-color="#22c600" offset="0"/>
                        <stop stop-color="#0a4d0a" offset="1"/>
                    </linearGradient>
                    <polygon fill="url(#SVGID_15_)" points="10.414,13.662 9.098,16.681 10.478,16.998     "/>
                    <linearGradient x1="804.9102" gradientTransform="matrix(0.9746 0.2239 0.2239 -0.9746 -443.3263 -1602.6992)" y1="-1474.5703" x2="804.9102" gradientUnits="userSpaceOnUse" y2="-1476.9536" xlink:type="simple" xlink:actuate="onLoad" id="SVGID_16_" xlink:show="other">
                        <stop stop-color="#22c600" offset="0"/>
                        <stop stop-color="#0a4d0a" offset="1"/>
                    </linearGradient>
                    <polygon fill="url(#SVGID_16_)" points="10.906,14.651 9.935,16.873 10.951,17.106     "/>
                    <linearGradient x1="805.4316" gradientTransform="matrix(0.9746 0.2239 0.2239 -0.9746 -443.3263 -1602.6992)" y1="-1474.9121" x2="805.4316" gradientUnits="userSpaceOnUse" y2="-1476.9536" xlink:type="simple" xlink:actuate="onLoad" id="SVGID_17_" xlink:show="other">
                        <stop stop-color="#22c600" offset="0"/>
                        <stop stop-color="#0a4d0a" offset="1"/>
                    </linearGradient>
                    <polygon fill="url(#SVGID_17_)" points="11.345,15.103 10.514,17.006 11.387,17.207     "/>
                </g>
                <path fill="#ffffff" d="M 5.092 19.78 L 26.773 9.663 L 6.794 5.072 L 3.7940001 18.126 C 4.375 18.559 4.797 19.138 5.092 19.78 z " fill-opacity="0.3"/>
            </g>
            <linearGradient x1="462.7432" gradientTransform="matrix(1 0 0 1 -448 -2968)" y1="2982.0264" x2="462.7432" gradientUnits="userSpaceOnUse" y2="2997.8311" xlink:type="simple" xlink:actuate="onLoad" id="SVGID_18_" xlink:show="other">
                <stop stop-color="#ffdb30" offset="0"/>
                <stop stop-color="#e6b500" offset="1"/>
            </linearGradient>
            <path fill="url(#SVGID_18_)" d="M 14.81 22.234 L 3.084 14.027 C 3.084 16.772 3.084 19.517 3.084 22.262001 C 3.084 23.908 3.084 25.552002 3.084 27.2 C 3.084 28.355001 3.028 29.626001 4.502 29.831001 C 11.115 29.831001 17.730999 29.831001 24.343998 29.831001 C 24.558998 29.831001 24.769999 29.831001 24.982998 29.831001 C 26.379997 29.636002 26.402998 28.480001 26.402998 27.359001 C 26.402998 25.717001 26.402998 24.085001 26.402998 22.447 C 26.402998 19.645 26.402998 16.846 26.402998 14.0460005 L 14.81 22.234 "/>
            <path fill="#c1a75d" d="M 14.812 22.232 L 15.024 22.534 L 26.399 14.573 C 26.399 14.226 26.399 14.028 26.399 14.028 L 25.9 14.028 L 14.811999 21.788 L 3.725 14.027 L 3.085 14.027 C 3.085 14.027 3.085 14.192 3.085 14.473001 L 14.6 22.536 L 14.812 22.232 "/>
            <path fill="#ead142" d="M 3.084 14.027 C 3.084 16.772 3.084 19.517 3.084 22.262001 C 3.084 23.908 3.084 25.552002 3.084 27.2 C 3.084 28.355001 3.028 29.626001 4.502 29.831001 C 11.115 29.831001 17.730999 29.831001 24.343998 29.831001 C 24.558998 29.831001 24.769999 29.831001 24.982998 29.831001 C 26.379997 29.636002 26.402998 28.480001 26.402998 27.359001 C 26.402998 25.717001 26.402998 24.085001 26.402998 22.447 C 26.402998 19.645 26.402998 16.846 26.402998 14.0460005 L 14.811998 22.236 L 3.084 14.027 M 15.155 22.855 L 25.75 15.368 C 25.75 18.728 25.75 27.351 25.75 28.389 C 25.738 28.694 25.643 28.778 25.398 28.938 C 24.763 29.294 23.740002 29.098 23.048 29.098 C 21.994 29.098 20.941 29.098 19.888 29.098 C 18.556 29.098 17.226 29.098 15.892 29.098 C 12.359 29.098 8.829 29.098 5.295 29.095 C 4.827 29.095 4.309 29.17 3.9250002 28.828999 C 3.7930002 28.697998 3.7400002 28.631998 3.7310002 28.385998 C 3.7310002 27.351997 3.7310002 18.697998 3.7310002 15.342998 L 14.809 23.094997 L 15.155 22.855 "/>
            <path fill="#a06d28" d="M 11.731 20.939 L 11.5859995 20.837 L 3.8229995 28.705 C 3.8519995 28.743 3.8839996 28.78 3.9289994 28.827 C 3.9719994 28.866 4.0329995 28.895 4.0909996 28.928999 L 11.84 21.074999 L 11.731 20.939 "/>
            <path fill="#ffea6c" d="M 11.298 20.639 L 11.298 20.639 L 11.011001 20.439 L 3.7350006 27.814 C 3.7350006 28.05 3.6860006 28.38 3.7750006 28.618 C 3.8040006 28.635 3.8290005 28.652 3.8590007 28.67 L 11.586 20.841 L 11.298 20.639 "/>
            <path fill="#a06d28" d="M 17.73 21.035 L 17.696999 21.077 L 25.428999 28.914 C 25.546999 28.833 25.626999 28.765999 25.678999 28.675 L 17.972 20.865 L 17.73 21.035 "/>
            <path fill="#ffea6c" d="M 25.686 28.664 C 25.817001 28.414999 25.75 28.025 25.75 27.761 L 18.545 20.46 L 17.975 20.866 L 25.676 28.671999 C 25.682 28.668 25.682 28.668 25.686 28.664 "/>
        </g>
    </g>
</svg>
