<?xml version="1.0" encoding="UTF-8"?>
<svg xmlns="http://www.w3.org/2000/svg" xmlns:xlink="http://www.w3.org/1999/xlink" contentScriptType="text/ecmascript" zoomAndPan="magnify" baseProfile="tiny" contentStyleType="text/css" version="1.1" width="44px" preserveAspectRatio="xMidYMid meet" viewBox="0 0 44 44" height="44px" x="0px" y="0px">
    <g>
        <g>
            <path fill="none" d="M 0.026 0.041 C 13.178 0.041 26.33 0.041 39.481003 0.041 C 40.867004 0.041 42.250004 0.052 43.631004 0.0 C 44.389004 -0.028 44.026005 3.03 44.026005 3.596 C 44.026005 6.8999996 44.026005 10.2039995 44.026005 13.509 C 44.026005 20.151001 44.026005 26.792 44.026005 33.432 C 44.026005 36.682 44.026005 39.93 44.026005 43.18 C 44.026005 43.686 44.190006 44.034 43.619003 44.076 C 43.233 44.103 42.847004 44.075 42.461002 44.053 C 40.965004 43.965 39.440002 44.043003 37.940002 44.043003 C 31.399002 44.043003 24.856003 44.043003 18.314003 44.043003 C 15.028003 44.043003 11.7420025 44.043003 8.456003 44.043003 C 5.812003 44.043003 3.070003 44.272003 0.43700314 44.076004 C -0.15199685 44.030003 0.028003126 43.640003 0.028003126 43.126003 C 0.028003126 42.329002 0.028003126 41.533005 0.028003126 40.736004 C 0.028003126 39.008003 0.028003126 37.286003 0.028003126 35.560005 C 0.028003126 32.243004 0.028003126 28.921005 0.028003126 25.607006 C 0.026 17.085 0.026 8.563 0.026 0.041 "/>
            <path d="M 32.07 8.015 L 26.078 8.015 C 26.16 6.5110006 25.014 6.248 24.449 5.0770006 C 24.062 4.2810006 23.585999 3.4530005 22.651999 3.2410007 C 21.401 2.9570007 20.340998 3.6890006 19.766998 4.7440004 C 19.523998 5.1890006 19.355999 5.6240005 18.948997 5.9450006 C 18.264997 6.489001 17.855997 7.1110005 17.932997 8.015 L 12.037996 8.015 C 10.383996 8.015 9.037996 9.361 9.037996 11.015 L 9.037996 36.244 C 9.037996 37.898 10.383996 39.244 12.037996 39.244 L 32.07 39.244 C 33.724 39.244 35.07 37.898 35.07 36.244 L 35.07 11.015 C 35.07 9.361 33.725 8.015 32.07 8.015 " fill-opacity="0.2"/>
            <path d="M 32.07 9.015 L 24.994 9.015 C 25.005999 8.490001 25.139 7.9090004 25.06 7.387 C 25.008 7.0420003 24.414 6.7330003 24.178999 6.512 C 23.376999 5.767 23.355 3.923 21.782999 4.228 C 20.72 4.435 20.581 5.6450005 19.998 6.339 C 19.707998 6.683 19.248999 6.893 19.019 7.287 C 18.765 7.723 19.068998 8.54 19.098 9.015 L 12.035999 9.015 C 10.931999 9.015 10.035999 9.911 10.035999 11.015 L 10.035999 36.244 C 10.035999 37.348 10.931999 38.244 12.035999 38.244 L 32.07 38.244 C 33.174 38.244 34.07 37.348 34.07 36.244 L 34.07 11.015 C 34.07 9.911 33.174 9.015 32.07 9.015 M 22.089 4.733 C 23.295 4.733 23.295 6.641 22.089 6.641 C 20.881 6.641 20.881 4.733 22.089 4.733 z " fill-opacity="0.4"/>
            <g>
                <linearGradient x1="134.0547" gradientTransform="matrix(1 0 0 1 -112 -748)" y1="756.0146" x2="134.0547" gradientUnits="userSpaceOnUse" y2="785.2441" xlink:type="simple" xlink:actuate="onLoad" id="SVGID_1_" xlink:show="other">
                    <stop stop-color="#b56b00" offset="0"/>
                    <stop stop-color="#513b1e" offset="1"/>
                </linearGradient>
                <path fill="url(#SVGID_1_)" d="M 34.07 35.244 C 34.07 36.348 33.174 37.244 32.07 37.244 L 12.038 37.244 C 10.934 37.244 10.038 36.348 10.038 35.244 L 10.038 10.015 C 10.038 8.911 10.934 8.015 12.038 8.015 L 32.07 8.015 C 33.174 8.015 34.07 8.911 34.07 10.015 L 34.07 35.244 z "/>
                <linearGradient x1="134.0664" gradientTransform="matrix(1 0 0 1 -112 -748)" y1="756.6299" x2="134.0664" gradientUnits="userSpaceOnUse" y2="771.1895" xlink:type="simple" xlink:actuate="onLoad" id="SVGID_2_" xlink:show="other">
                    <stop stop-color="#e2bc44" offset="0"/>
                    <stop stop-color="#c68220" offset="1"/>
                </linearGradient>
                <path fill="url(#SVGID_2_)" d="M 33.555 21.189 C 33.555 22.293 32.659 23.189 31.555 23.189 L 12.577 23.189 C 11.473 23.189 10.577 22.293 10.577 21.189 L 10.577 10.63 C 10.577 9.526 11.473 8.63 12.577 8.63 L 31.555 8.63 C 32.659 8.63 33.555 9.526 33.555 10.63 L 33.555 21.189 z "/>
                <linearGradient x1="538.1563" gradientTransform="matrix(1 0 0 1 -516.0039 -2245.0117)" y1="2255.6768" x2="538.1563" gradientUnits="userSpaceOnUse" y2="2280.3486" xlink:type="simple" xlink:actuate="onLoad" id="SVGID_3_" xlink:show="other">
                    <stop stop-color="#d8d8d8" offset="0"/>
                    <stop stop-color="#b2b2b2" offset="1"/>
                </linearGradient>
                <path fill="url(#SVGID_3_)" d="M 26.395 35.335 C 28.123001 33.84 29.848 32.346 31.578001 30.849998 C 32.375 30.161999 32.164 29.460999 32.164 28.453 C 32.166 27.273998 32.166 26.098999 32.166 24.925 C 32.166 20.181 32.168 15.436999 32.168 10.691999 C 27.789 10.691999 23.407999 10.691999 19.029999 10.691999 C 16.980999 10.691999 14.931999 10.691999 12.882999 10.691999 C 12.254999 10.691999 12.122999 10.516999 12.120999 11.089 C 12.119999 11.606 12.119999 12.123 12.119999 12.639999 C 12.118999 20.206 12.118999 27.77 12.117999 35.337997 C 16.875 35.334 21.635 35.335 26.395 35.335 "/>
                <linearGradient x1="134.1143" gradientTransform="matrix(1 0 0 1 -112 -748)" y1="759.2393" x2="134.1143" gradientUnits="userSpaceOnUse" y2="771.1875" xlink:type="simple" xlink:actuate="onLoad" id="SVGID_4_" xlink:show="other">
                    <stop stop-color="#ffffff" offset="0"/>
                    <stop stop-color="#d8d8d8" offset="1"/>
                </linearGradient>
                <rect x="12.674" width="18.881" fill="url(#SVGID_4_)" y="11.239" height="11.948"/>
                <path fill="#565656" d="M 32.162 30.342 C 31.904 29.858 30.994 30.071999 30.571999 30.108 C 29.696999 30.182 28.796999 30.13 27.919998 30.137 C 27.239998 30.143 26.731998 29.978998 26.689999 30.751 C 26.633 31.677 26.467 32.607 26.353998 33.527 C 26.292997 34.005 26.191998 34.508 26.208998 34.996002 C 26.243998 35.807003 27.124998 34.702003 27.362997 34.496002 C 28.963 33.111 30.563 31.727 32.162 30.342 "/>
                <linearGradient x1="1279.0137" gradientTransform="matrix(1 1.000000e-004 -1.000000e-004 1 -1252.5786 -349.1215)" y1="381.832" x2="1284.7793" gradientUnits="userSpaceOnUse" y2="381.832" xlink:type="simple" xlink:actuate="onLoad" id="SVGID_5_" xlink:show="other">
                    <stop stop-color="#d8d8d8" offset="0"/>
                    <stop stop-color="#b2b2b2" offset="1"/>
                </linearGradient>
                <path fill="url(#SVGID_5_)" d="M 32.162 30.342 C 30.710999 30.353998 29.258 30.365 27.807999 30.376999 C 26.831999 30.386 26.954998 30.440998 26.839998 31.328 C 26.663998 32.661 26.557999 34.001 26.395998 35.335 C 28.316 33.671 30.24 32.006 32.162 30.342 "/>
                <linearGradient x1="538.0469" gradientTransform="matrix(1 0 0 1 -516.0039 -2245.0117)" y1="2248.2246" x2="538.0469" gradientUnits="userSpaceOnUse" y2="2256.5605" xlink:type="simple" xlink:actuate="onLoad" id="SVGID_6_" xlink:show="other">
                    <stop stop-color="#bababa" offset="0"/>
                    <stop stop-color="#494949" offset="1"/>
                </linearGradient>
                <path fill="url(#SVGID_6_)" d="M 30.061 11.025 C 29.463001 9.354 27.735 9.252999 26.217001 9.12 C 25.321001 9.042 24.936 8.87 24.992 7.8929996 C 25.017 7.469 25.049 7.0469995 25.068 6.6219997 C 25.089 6.128 24.933 6.1219997 24.533 5.8789997 C 23.820002 5.4449997 23.699001 4.474 23.226002 3.8439996 C 22.599 3.0089996 21.518002 3.0259995 20.873001 3.8379996 C 20.34 4.514 20.215 5.556 19.405 6.0 C 18.701 6.386 19.117 7.472 19.107 8.188 C 19.092001 9.171 18.242 9.085 17.468 9.146 C 16.515001 9.222 15.573 9.28 14.799001 9.8949995 C 14.505001 10.127999 13.418001 11.445999 14.375001 11.523999 C 15.452001 11.6119995 16.589 11.504999 17.672 11.504999 C 20.228 11.504999 22.783 11.504999 25.338001 11.504999 C 26.547 11.504999 27.754002 11.504999 28.963001 11.504999 C 29.314 11.508 30.299 11.691 30.061 11.025 M 22.089 5.641 C 20.881 5.641 20.881 3.7329998 22.089 3.7329998 C 23.295 3.733 23.295 5.641 22.089 5.641 "/>
                <linearGradient x1="535.5215" gradientTransform="matrix(1 0 0 1 -516.0039 -2245.0117)" y1="2248.2031" x2="535.5215" gradientUnits="userSpaceOnUse" y2="2256.0088" xlink:type="simple" xlink:actuate="onLoad" id="SVGID_7_" xlink:show="other">
                    <stop stop-color="#e0e0e0" offset="0"/>
                    <stop stop-color="#9b9b9b" offset="1"/>
                </linearGradient>
                <path fill="url(#SVGID_7_)" d="M 24.664 6.121 C 24.664 5.8729997 24.336 5.658 24.18 5.5119996 C 23.826 5.1819997 23.756 4.7319994 23.553 4.311 C 23.199 3.5679998 22.342 2.934 21.503 3.32 C 20.746 3.669 20.483 4.49 20.119 5.1689997 C 19.869999 5.6319995 19.043999 6.0059996 18.956999 6.4509997 C 18.831999 7.0899997 19.685 8.884 18.617998 9.040999 C 17.155998 9.256 15.311998 8.995999 14.369998 10.41 C 17.806 11.803 24.664 10.918 24.664 6.121 M 22.089 3.733 C 23.295 3.733 23.295 5.641 22.089 5.641 C 20.881 5.641 20.881 3.733 22.089 3.733 "/>
            </g>
        </g>
        <g>
            <path fill="#383838" d="M 31.208 15.143 C 31.32 14.67 30.124 14.891999 29.822 14.891999 C 28.551 14.891999 27.283 14.891999 26.013 14.891999 C 22.863 14.891999 19.710001 14.891999 16.559 14.891999 C 15.591 14.891999 14.622 14.891999 13.653 14.891999 C 13.601 14.891999 13.291 14.850999 13.253 14.891999 C 13.165 14.985999 13.226 15.864999 13.325 15.864999 C 15.471 15.864999 17.617 15.864999 19.764 15.864999 C 22.475 15.864999 25.186 15.864999 27.897 15.864999 C 28.765999 15.864999 29.637 15.864999 30.505999 15.864999 C 31.259 15.865 31.208 15.969 31.208 15.143 "/>
            <path fill="#383838" d="M 13.255 19.075 C 13.255 19.216002 13.205 20.048 13.301 20.048 C 13.546 20.048 13.792 20.048 14.037 20.048 C 15.153999 20.048 16.27 20.048 17.387 20.048 C 20.56 20.048 23.731998 20.048 26.905998 20.048 C 28.05 20.048 29.192999 20.048 30.337997 20.048 C 31.241997 20.048 31.209997 20.182001 31.209997 19.201 C 31.209997 18.934 29.947998 19.076 29.708998 19.076 C 28.416998 19.076 27.123997 19.076 25.830997 19.076 C 21.638 19.075 17.447 19.075 13.255 19.075 "/>
            <path fill="#383838" d="M 31.208 23.509 C 31.32 23.036001 30.124 23.258001 29.822 23.258001 C 28.551 23.258001 27.282001 23.258001 26.011 23.258001 C 22.861 23.258001 19.709 23.258001 16.557999 23.258001 C 15.588999 23.258001 14.619999 23.258001 13.6519985 23.258001 C 13.599998 23.258001 13.289999 23.217001 13.251999 23.258001 C 13.163999 23.352001 13.224998 24.231 13.323998 24.231 C 15.469998 24.231 17.616999 24.231 19.762999 24.231 C 22.474998 24.231 25.185999 24.231 27.897 24.231 C 28.768 24.231 29.637 24.231 30.505999 24.231 C 31.259 24.23 31.208 24.334 31.208 23.509 "/>
            <path fill="#383838" d="M 13.255 27.691 C 13.255 28.611 13.36 28.414 14.222 28.414 C 15.392 28.414 16.563 28.414 17.734001 28.414 C 20.905 28.414 24.076 28.414 27.248001 28.414 C 28.336 28.414 29.425001 28.414 30.514002 28.414 C 30.731 28.414 30.949001 28.414 31.164001 28.414 C 31.307001 28.414 31.164001 27.441 31.207 27.441 C 29.291 27.441 27.375 27.441 25.459 27.441 C 22.712 27.441 19.965 27.441 17.217999 27.441 C 16.252998 27.441 15.286999 27.441 14.321999 27.441 C 14.031 27.441 13.148 27.24 13.255 27.691 "/>
        </g>
    </g>
    <g>
        <path d="M 39.925 29.416 L 39.925 28.881 L 39.925 28.485 L 39.245 28.485 L 39.245 28.247 L 39.245 27.85 L 38.46 27.85 L 38.461998 27.229 L 38.461998 26.834 L 33.704 26.834 L 33.704 27.85 L 33.314 27.85 L 32.918 27.85 L 32.918 28.487 L 32.637 28.487 L 32.241 28.487 L 32.241 29.466 L 16.512 29.466 L 16.393 29.621 C 16.321 29.715 16.229 29.836 16.14 29.954 L 16.102999 30.006 L 15.966999 30.395 L 15.945999 30.458 L 15.945999 30.522 L 15.945999 30.974998 L 15.945999 31.147 L 16.803999 31.925 L 17.129 32.252 L 17.244 32.367 L 17.9 32.367 L 18.064 32.367 L 18.470999 31.959 L 18.734999 31.959 L 18.9 32.124 L 19.015999 32.242 L 20.016998 32.242 L 20.251999 32.006 L 20.457998 32.006 L 20.762999 32.309002 L 21.246998 32.793003 L 21.882998 32.793003 L 22.715998 32.793003 L 23.765997 32.561005 L 24.511997 32.561005 L 26.265997 33.852005 L 27.866997 33.852005 L 28.710997 33.470005 L 29.163996 33.921005 L 30.016996 34.775005 L 31.030996 34.775005 L 31.676996 35.421005 L 32.244995 35.421005 L 32.244995 36.004005 L 32.244995 36.4 L 32.923996 36.4 L 32.923996 36.640003 L 32.923996 37.036003 L 33.708996 37.036003 L 33.708996 37.657 L 33.708996 38.052002 L 38.461994 38.055 L 38.461994 37.038002 L 38.850994 37.038002 L 39.245995 37.038002 L 39.245995 36.402 L 39.530994 36.402 L 39.926994 36.402 L 39.926994 35.474 L 42.250996 34.504997 L 42.250996 33.350998 L 42.250996 31.537998 L 42.250996 30.380999 L 39.925 29.416 z M 39.93 34.016 L 39.93 30.871998 L 40.731 31.202997 L 40.731 31.682997 L 40.731 33.2 L 40.731 33.683002 L 39.93 34.016 z " fill-opacity="0.2"/>
        <path d="M 16.343 30.521 L 16.343 30.521 L 16.343 30.973999 L 17.072 31.632 L 17.41 31.972 L 17.902 31.972 L 18.309 31.566 L 18.902 31.566 L 19.182001 31.847 L 19.854002 31.847 L 20.091002 31.609 L 20.624 31.609 L 21.043001 32.031 L 21.411001 32.398 L 21.883001 32.398 L 22.673002 32.398 L 23.719002 32.167 L 24.643002 32.167 L 26.395002 33.46 L 27.780003 33.46 L 28.797003 32.996998 L 29.443003 33.642998 L 30.181004 34.380997 L 31.193003 34.380997 L 31.839003 35.026997 L 32.638004 35.026997 L 32.638004 36.005997 L 33.318005 36.005997 L 33.318005 36.640995 L 34.103004 36.640995 L 34.103004 37.657993 L 38.070004 37.657993 L 38.070004 36.640995 L 38.853004 36.640995 L 38.853004 36.005997 L 39.538006 36.005997 L 39.538006 35.21 L 41.859005 34.242 L 41.859005 33.35 L 41.859005 31.536999 L 41.859005 30.644 L 39.538006 29.676998 L 39.538006 28.877998 L 38.853004 28.877998 L 38.853004 28.242998 L 38.070004 28.242998 L 38.070004 27.224998 L 34.103004 27.224998 L 34.103004 28.242998 L 33.318005 28.242998 L 33.318005 28.877998 L 32.642006 28.877998 L 32.642006 29.857998 L 16.709 29.857998 C 16.639 29.948997 16.548 30.068998 16.459 30.187998 L 16.343 30.521 z M 39.536 34.607 L 39.536 30.28 L 41.123 30.937 L 41.123 31.683 L 41.123 33.201 L 41.123 33.948 L 39.536 34.607 z " fill-opacity="0.4"/>
        <linearGradient x1="297.1016" gradientTransform="matrix(1 0 0 -1 -268.002 -1067.5049)" y1="-1094.2051" x2="297.1016" gradientUnits="userSpaceOnUse" y2="-1104.6367" xlink:type="simple" xlink:actuate="onLoad" id="SVGID_8_" xlink:show="other">
            <stop stop-color="#ffe23d" offset="0"/>
            <stop stop-color="#fad337" offset="0.2239"/>
            <stop stop-color="#efab26" offset="0.6537"/>
            <stop stop-color="#e48717" offset="1"/>
        </linearGradient>
        <path fill="url(#SVGID_8_)" d="M 16.343 29.995 L 16.343 29.995 L 16.343 30.447 L 17.072 31.109001 L 17.41 31.447 L 17.902 31.447 L 18.309 31.04 L 18.902 31.04 L 19.182001 31.320002 L 19.854002 31.320002 L 20.091002 31.084002 L 20.624 31.084002 L 21.043001 31.505001 L 21.411001 31.873001 L 21.883001 31.873001 L 22.673002 31.873001 L 23.719002 31.643002 L 24.643002 31.643002 L 26.395002 32.934002 L 27.780003 32.934002 L 28.797003 32.473003 L 29.443003 33.119003 L 30.181004 33.855003 L 31.193003 33.855003 L 31.839003 34.501003 L 32.638004 34.501003 L 32.638004 35.480003 L 33.318005 35.480003 L 33.318005 36.117004 L 34.103004 36.117004 L 34.103004 37.132004 L 38.070004 37.132004 L 38.070004 36.117004 L 38.853004 36.117004 L 38.853004 35.48 L 39.538006 35.48 L 39.538006 34.681 L 41.859005 33.714 L 41.859005 32.822002 L 41.859005 31.01 L 41.859005 30.118 L 39.538006 29.152 L 39.538006 28.351 L 38.853004 28.351 L 38.853004 27.715 L 38.070004 27.715 L 38.070004 26.7 L 34.103004 26.7 L 34.103004 27.716002 L 33.318005 27.716002 L 33.318005 28.352001 L 32.642006 28.352001 L 32.642006 29.332 L 16.709 29.332 C 16.639 29.422 16.548 29.543001 16.459 29.661001 L 16.343 29.995 z M 39.536 34.081 L 39.536 29.755001 L 41.123 30.412 L 41.123 31.158 L 41.123 32.675 L 41.123 33.420998 L 39.536 34.081 z "/>
        <linearGradient x1="297.1035" gradientTransform="matrix(1 0 0 -1 -268.002 -1067.5049)" y1="-1094.3389" x2="297.1035" gradientUnits="userSpaceOnUse" y2="-1099.6455" xlink:type="simple" xlink:actuate="onLoad" id="SVGID_9_" xlink:show="other">
            <stop stop-color="#ffec9c" offset="0"/>
            <stop stop-color="#fad337" offset="1"/>
        </linearGradient>
        <path fill="url(#SVGID_9_)" d="M 39.402 29.557 L 41.256 30.324999 L 41.256 31.161 L 41.256 32.14 L 41.731 32.14 L 41.731 31.01 L 41.731 30.206 L 39.405 29.238998 L 39.405 29.151999 L 39.405 28.484 L 38.725 28.484 L 38.725 28.352999 L 38.725 27.85 L 37.94 27.85 L 37.94 26.834 L 34.235 26.834 L 34.235 27.85 L 34.102 27.85 L 33.45 27.85 L 33.45 28.485 L 33.318 28.485 L 32.771 28.485 L 32.771 29.464 L 16.773 29.464 C 16.713001 29.543001 16.644001 29.635 16.574001 29.727001 L 16.473001 30.022001 L 16.473001 30.391 L 17.164001 31.014 L 17.465002 31.315 L 17.846003 31.315 L 18.253002 30.911001 L 18.308002 30.911001 L 18.956003 30.911001 L 18.993004 30.95 L 19.235004 31.19 L 19.8 31.19 L 20.035 30.955 L 20.09 30.955 L 20.678 30.955 L 21.136 31.412 L 21.466 31.744001 L 21.883999 31.744001 L 22.647 31.746002 L 23.720999 31.511002 L 24.688 31.511002 L 25.542 32.142002 L 39.402 32.142002 L 39.402 29.557 L 39.402 29.557 z "/>
    </g>
</svg>
