<?xml version="1.0" encoding="UTF-8"?>
<svg xmlns="http://www.w3.org/2000/svg" xmlns:xlink="http://www.w3.org/1999/xlink" contentScriptType="text/ecmascript" zoomAndPan="magnify" baseProfile="tiny" contentStyleType="text/css" version="1.1" width="30px" preserveAspectRatio="xMidYMid meet" viewBox="0 0 30 40" height="40px" x="0px" y="0px">
    <g>
        <g>
            <g>
                <rect width="30" fill="none" height="40"/>
            </g>
        </g>
    </g>
    <g>
        <g>
            <g>
                <path d="M 7.0 24.021 C 7.0 24.025 6.999 24.029 6.999 24.032999 L 6.999 28.418999 C 6.999 29.546 7.921 30.466 9.047 30.466 L 20.963001 30.466 L 24.407001 34.651 C 24.87 35.128002 25.532001 34.778 25.532001 34.249 L 25.532001 30.469 L 26.454002 30.469 C 27.580002 30.469 28.503002 29.55 28.503002 28.422 L 28.503002 24.037 L 7.0 24.021 z " fill-opacity="0.5"/>
                <path d="M 26.453 13.23 L 9.047 13.23 L 9.047 13.231 L 9.046 13.231 L 9.046 13.23 C 7.4939995 13.231999 6.2339993 14.490999 6.2299995 16.045 L 6.2319994 28.332 C 6.2329993 29.887001 7.4929996 31.145 9.044999 31.146 L 20.6 31.146 L 23.86 35.107 C 24.128 35.378 24.505001 35.559998 24.881 35.559998 C 24.885 35.559998 24.890001 35.559998 24.894001 35.559998 C 25.728 35.518997 26.265001 34.928997 26.300001 34.161 L 26.300001 31.147999 L 26.454 31.147999 C 28.008001 31.145998 29.267 29.887999 29.268 28.331999 L 29.27 16.044998 C 29.266 14.492 28.008 13.232 26.453 13.23 z " fill-opacity="0.2"/>
                <linearGradient x1="229.751" gradientTransform="matrix(1 0 0 1 -212 -969.5)" y1="982.7305" x2="229.751" gradientUnits="userSpaceOnUse" y2="1003.5264" xlink:type="simple" xlink:actuate="onLoad" id="SVGID_1_" xlink:show="other">
                    <stop stop-color="#f7cd00" offset="0"/>
                    <stop stop-color="#ff8b00" offset="1"/>
                </linearGradient>
                <path fill="url(#SVGID_1_)" d="M 6.999 15.278 L 6.999 27.567 C 6.999 28.696 7.921 29.616 9.047 29.616 L 20.963001 29.616 L 24.407001 33.8 C 24.919 34.321 25.532001 33.844997 25.532001 33.396 L 25.532001 29.618 L 26.454002 29.618 C 27.580002 29.618 28.503002 28.697 28.503002 27.57 L 28.503002 15.28 C 28.503002 14.153999 27.580002 13.231999 26.454002 13.231999 L 9.046 13.231999 C 7.92 13.23 6.999 14.15 6.999 15.278 z "/>
            </g>
            <linearGradient x1="229.7676" gradientTransform="matrix(1 0 0 1 -212 -969.5)" y1="983.2578" x2="229.7676" gradientUnits="userSpaceOnUse" y2="991.6777" xlink:type="simple" xlink:actuate="onLoad" id="SVGID_2_" xlink:show="other">
                <stop stop-color="#fdff99" offset="0"/>
                <stop stop-color="#fff200" offset="1"/>
            </linearGradient>
            <path fill="url(#SVGID_2_)" d="M 27.479 22.178 L 27.479 15.608 C 27.479 14.59 26.647 13.757999 25.628 13.757999 L 9.904 13.757999 C 8.887 13.757999 8.055 14.589999 8.055 15.608 L 8.055 22.178 L 27.479 22.178 z "/>
            <g>
                <path d="M 2.016 15.558 L 2.016 18.637 C 2.016 19.428999 2.663 20.074999 3.454 20.074999 L 4.102 20.074999 L 4.102 22.727999 C 4.102 23.102999 4.566 23.346998 4.8910003 23.012999 L 7.309 20.074999 L 15.678 20.074999 C 16.468 20.074999 17.116001 19.428999 17.116001 18.637 L 17.116001 15.557999 C 17.116001 15.555999 17.116001 15.553999 17.116001 15.550999 L 2.016 15.558 z " fill-opacity="0.5"/>
                <path d="M 15.967 8.003 C 15.874 7.9830003 15.778 7.973 15.678 7.973 L 3.454 7.973 C 3.355 7.973 3.258 7.9830003 3.164 8.003 C 2.211 8.146 1.479 8.958 1.476 9.95 L 1.477 18.575 C 1.478 19.668001 2.362 20.552 3.454 20.553001 L 3.562 20.553001 L 3.562 22.668001 C 3.586 23.210001 3.9650002 23.623001 4.55 23.652 C 4.553 23.652 4.556 23.652 4.558 23.652 C 4.823 23.652 5.084 23.525 5.2720003 23.333 L 7.5620003 20.555 L 15.676001 20.555 C 16.768002 20.553 17.651001 19.67 17.653 18.577 L 17.653 9.95 C 17.65 8.958 16.918 8.146 15.967 8.003 z " fill-opacity="0.2"/>
                <linearGradient x1="513.5664" gradientTransform="matrix(1 0 0 1 -504 -1718.5)" y1="1726.4727" x2="513.5664" gradientUnits="userSpaceOnUse" y2="1741.0752" xlink:type="simple" xlink:actuate="onLoad" id="SVGID_3_" xlink:show="other">
                    <stop stop-color="#ebebeb" offset="0"/>
                    <stop stop-color="#cfc9c2" offset="1"/>
                </linearGradient>
                <path fill="url(#SVGID_3_)" d="M 15.678 7.973 L 3.454 7.973 C 2.663 7.973 2.016 8.619 2.016 9.411 L 2.016 18.039001 C 2.016 18.831001 2.663 19.476002 3.454 19.476002 L 4.102 19.476002 L 4.102 22.131002 C 4.102 22.445002 4.533 22.783003 4.8910003 22.414001 L 7.309 19.476002 L 15.678 19.476002 C 16.468 19.476002 17.116001 18.831001 17.116001 18.039001 L 17.116001 9.41 C 17.113 8.619 16.468 7.973 15.678 7.973 z "/>
                <path fill="#ebebeb" d="M 17.113 13.932 L 17.113 9.374 C 17.113 8.603 16.467001 7.9729996 15.676001 7.9729996 L 3.454 7.9729996 C 2.663 7.9729996 2.016 8.603 2.016 9.374 L 2.016 13.931999 L 17.113 13.931999 z "/>
            </g>
        </g>
    </g>
</svg>
