<?xml version="1.0" encoding="UTF-8"?>
<svg xmlns="http://www.w3.org/2000/svg" xmlns:xlink="http://www.w3.org/1999/xlink" contentScriptType="text/ecmascript" zoomAndPan="magnify" baseProfile="tiny" contentStyleType="text/css" version="1.1" width="44px" preserveAspectRatio="xMidYMid meet" viewBox="0 0 44 44" height="44px" x="0px" y="0px">
    <g>
        <rect width="44" fill="none" height="44"/>
        <polygon fill-opacity="0.4" stroke-opacity="0.4" points="11.391,11.537 11.391,7.829 1.957,14.908 11.391,21.857 11.391,18.148    22.832,18.152 22.832,11.535  "/>
        <polygon fill-opacity="0.2" stroke-opacity="0.2" points="12.066,10.859 12.066,6.476 0.822,14.914 12.066,23.195 12.066,18.828    23.51,18.828 23.51,10.859  "/>
        <linearGradient x1="-173.6895" gradientTransform="matrix(0 1 1 0 -2481.207 182.9521)" y1="2493.6006" x2="-148.6593" gradientUnits="userSpaceOnUse" y2="2493.6006" xlink:type="simple" xlink:actuate="onLoad" id="SVGID_1_" xlink:show="other">
            <stop stop-color="#8fe612" offset="0"/>
            <stop stop-color="#008508" offset="1"/>
        </linearGradient>
        <path fill="url(#SVGID_1_)" d="M 22.832 10.859 L 11.391 10.859 L 11.391 7.153 L 1.9549999 14.233 L 11.391 21.182 L 11.391 17.473 L 22.832 17.477 L 22.832 10.859 z "/>
        <linearGradient x1="506.5996" gradientTransform="matrix(1 0 0 1 -494.0068 -1628.0156)" y1="1637.0713" x2="506.5996" gradientUnits="userSpaceOnUse" y2="1647.812" xlink:type="simple" xlink:actuate="onLoad" id="SVGID_2_" xlink:show="other">
            <stop stop-color="#c7ffb8" offset="0"/>
            <stop stop-color="#9eff00" offset="0.7582"/>
            <stop stop-color="#9eff00" offset="1"/>
        </linearGradient>
        <polygon fill="url(#SVGID_2_)" points="22.324,11.369 10.885,11.369 10.881,8.167 2.861,14.188 22.324,14.188  "/>
        <polygon fill-opacity="0.4" stroke-opacity="0.4" points="33.133,23.622 33.133,19.914 42.563,26.993 33.133,33.943    33.133,30.234 21.686,30.238 21.686,23.619  "/>
        <polygon fill-opacity="0.2" stroke-opacity="0.2" points="43.698,26.997 32.454,18.56 32.454,22.945 21.011,22.941    21.011,30.915 32.454,30.912 32.454,35.281  "/>
        <linearGradient x1="-161.605" gradientTransform="matrix(0 1 -1 0 220.8027 182.9521)" y1="188.6777" x2="-136.5785" gradientUnits="userSpaceOnUse" y2="188.6777" xlink:type="simple" xlink:actuate="onLoad" id="SVGID_3_" xlink:show="other">
            <stop stop-color="#4491e0" offset="0"/>
            <stop stop-color="#1e41cc" offset="1"/>
        </linearGradient>
        <path fill="url(#SVGID_3_)" d="M 21.686 29.561 L 33.133 29.559 L 33.133 33.266 L 42.565 26.317 L 33.133 19.237999 L 33.133 22.946999 L 21.686 22.944998 L 21.686 29.561 z "/>
        <linearGradient x1="-1798.3247" gradientTransform="matrix(-1 0 0 1 -1766.3984 -1628.0156)" y1="1649.1572" x2="-1798.3247" gradientUnits="userSpaceOnUse" y2="1659.8945" xlink:type="simple" xlink:actuate="onLoad" id="SVGID_4_" xlink:show="other">
            <stop stop-color="#b3e8ff" offset="0"/>
            <stop stop-color="#b3e8ff" offset="0.044"/>
            <stop stop-color="#0abdff" offset="1"/>
        </linearGradient>
        <polygon fill="url(#SVGID_4_)" fill-opacity="0.8" stroke-opacity="0.8" points="22.195,23.451 33.639,23.453 33.639,20.254    41.658,26.271 22.195,26.271  "/>
    </g>
    <g>
        <path d="M 31.75 5.783 L 30.842 6.058 L 30.842 6.058 L 31.748 5.774 C 31.425 4.7330003 30.501 4.1870003 29.502998 3.914 C 28.887999 3.746 28.252998 3.653 27.619999 3.581 C 26.917 3.5 26.126999 3.627 25.449999 3.4020002 C 22.397 3.2540002 19.262999 3.2220001 16.237999 3.709 C 15.280999 3.8630002 14.182999 4.096 13.512999 4.86 C 12.630999 5.8650002 12.728998 7.514 12.708999 8.76 C 12.654999 12.0390005 12.706999 15.324 12.706999 18.604 C 12.706999 21.878 12.715999 25.153 12.666999 28.427 C 12.643999 29.954 12.629999 31.483 12.694999 33.009 C 12.748999 34.273 12.670999 36.034 13.715999 36.952 C 14.5599985 37.693 15.845999 37.849 16.914999 37.989 C 18.144999 38.150997 19.398998 38.247997 20.64 38.211998 C 22.973 38.144997 25.258 38.306 27.608 38.024 C 28.765999 37.885998 30.39 37.723 31.227 36.8 C 31.993 35.955997 32.005 34.552998 32.071 33.487 C 32.258 30.455 32.068 27.383999 32.068 24.346 C 32.068 21.256 32.068 18.165 32.068 15.075001 C 32.068 13.533001 32.047 11.988001 32.076 10.446001 C 32.105 8.894 32.197 7.292 31.75 5.783 " fill-opacity="0.2" stroke-opacity="0.2"/>
        <path d="M 30.842 6.059 C 30.243 4.134 26.501999 4.429 24.998999 4.3710003 C 21.967999 4.255 18.894 4.1710005 15.892999 4.729 C 14.702999 4.9500003 13.950998 5.452 13.766998 6.708 C 13.556998 8.144 13.648998 9.652 13.657998 11.099 C 13.677999 14.28 13.660998 17.462 13.660998 20.643 C 13.660998 23.911 13.682999 27.18 13.650998 30.448 C 13.636998 31.837 13.611999 33.239 13.743999 34.623 C 13.866999 35.905003 14.461999 36.613003 15.7179985 36.895 C 18.404999 37.5 21.409998 37.41 24.142998 37.32 C 25.591997 37.272 27.077997 37.215 28.507998 36.966 C 29.848997 36.732 30.824997 36.279 31.056997 34.859 C 31.372997 32.907 31.126997 30.758001 31.126997 28.79 C 31.126997 26.175001 31.126997 23.560001 31.126997 20.944 C 31.126997 18.437 31.126997 15.929001 31.126997 13.422001 C 31.126 11.082 31.527 8.321 30.842 6.059 " fill-opacity="0.4" stroke-opacity="0.4"/>
        <path fill="#e5e5e5" d="M 30.839 5.101 C 30.529001 4.108 29.398 3.8549998 28.498001 3.7069998 C 26.927002 3.4469998 25.333 3.3679998 23.742 3.3269997 C 22.26 3.2879996 20.776001 3.3119996 19.295 3.3979998 C 17.893 3.4799998 16.305 3.4779997 14.998 4.054 C 13.975 4.506 13.8 5.4969997 13.709 6.509 C 13.563 8.127 13.611 9.753 13.641999 11.375 C 13.702 14.64 13.658999 17.909 13.658999 21.174 C 13.658999 24.299 13.691999 27.424 13.606999 30.548 C 13.570999 31.861 13.450999 33.496002 13.997 34.729 C 14.517 35.904 16.22 36.009 17.312 36.14 C 20.459 36.517998 23.709 36.468 26.864 36.204 C 27.948 36.113 29.435001 36.059998 30.307001 35.314 C 31.198002 34.55 31.118002 32.989 31.146002 31.935999 C 31.267002 27.433998 31.121002 22.904999 31.121002 18.399998 C 31.121002 16.122997 31.096003 13.842998 31.123003 11.565998 C 31.147 9.455 31.461 7.157 30.839 5.101 "/>
        <path fill="#030303" d="M 29.947 4.774 C 29.02 3.847 22.39 3.847 22.39 3.847 C 22.39 3.847 15.759999 3.847 14.832999 4.7739997 C 14.832999 4.7739997 14.190999 4.4979997 14.190999 8.125 C 14.190999 8.792 14.190999 9.898 14.190999 11.262 C 14.190999 17.321 14.190999 28.443 14.190999 28.443 C 14.190999 29.804 14.190999 30.914001 14.190999 31.580002 C 14.190999 35.208 14.832999 34.93 14.832999 34.93 C 15.759999 35.86 22.39 35.86 22.39 35.86 C 22.39 35.86 29.019 35.86 29.946999 34.93 C 29.946999 34.93 30.588 35.208 30.588 31.58 C 30.588 30.914 30.588 29.807 30.588 28.443 C 30.588 28.443 30.588 17.318 30.588 11.262001 C 30.588 9.898001 30.588 8.792001 30.588 8.125001 C 30.588 4.498 29.947 4.774 29.947 4.774 z "/>
        <linearGradient x1="523.6689" gradientTransform="matrix(1 0 0 1 -494.0068 -1628.0156)" y1="1644.5537" x2="509.126" gradientUnits="userSpaceOnUse" y2="1644.5537" xlink:type="simple" xlink:actuate="onLoad" id="SVGID_5_" xlink:show="other">
            <stop stop-color="#d8d8d8" offset="0"/>
            <stop stop-color="#636363" offset="1"/>
        </linearGradient>
        <rect x="15.119" width="14.543" fill="url(#SVGID_5_)" y="7.198" height="18.679"/>
        <path fill="#ffffff" d="M 28.467 35.992 C 29.153 35.873 30.226 35.696 30.637999 35.059002 C 31.081 34.372 31.079998 33.336002 31.110998 32.548 C 31.164999 31.106 31.127998 29.655 31.127998 28.212 C 31.127998 25.572 31.127998 22.933 31.127998 20.293 C 31.127998 16.532 31.127998 12.771 31.127998 9.008999 C 31.127998 7.926999 31.506998 5.0579987 30.363998 4.3409986 C 28.515 3.1809988 25.64 3.3749986 23.537998 3.3219986 L 23.537998 36.368 C 25.179 36.328 26.846 36.273 28.467 35.992 " fill-opacity="0.2" stroke-opacity="0.2"/>
        <linearGradient x1="513.96" gradientTransform="matrix(1 0 0 1 -494.0068 -1628.0156)" y1="1655.835" x2="518.8179" gradientUnits="userSpaceOnUse" y2="1664.2491" xlink:type="simple" xlink:actuate="onLoad" id="SVGID_6_" xlink:show="other">
            <stop stop-color="#000000" offset="0"/>
            <stop stop-color="#000000" offset="0.3"/>
            <stop stop-color="#444444" offset="0.5"/>
            <stop stop-color="#000000" offset="0.7"/>
            <stop stop-color="#000000" offset="1"/>
        </linearGradient>
        <path fill="url(#SVGID_6_)" d="M 27.238 34.359 C 27.238 34.832 26.855001 35.213 26.383001 35.213 L 18.398 35.213 C 17.926 35.213 17.543001 34.831 17.543001 34.359 L 17.543001 29.724 C 17.543001 29.247002 17.926 28.87 18.398 28.87 L 26.383001 28.87 C 26.856 28.87 27.238 29.252 27.238 29.724 L 27.238 34.359 z "/>
        <linearGradient x1="19.9121" y1="32.0762" x2="24.9375" gradientUnits="userSpaceOnUse" y2="32.0762" xlink:type="simple" xlink:actuate="onLoad" id="SVGID_7_" xlink:show="other">
            <stop stop-color="#7f7f7f" offset="0"/>
            <stop stop-color="#ffffff" offset="1"/>
        </linearGradient>
        <path fill="url(#SVGID_7_)" d="M 23.227 29.563 L 21.623 29.563 C 20.678 29.563 19.911999 30.333 19.911999 31.274 L 19.911999 32.878 C 19.911999 33.822998 20.678 34.588997 21.623 34.588997 L 23.227 34.588997 C 24.171999 34.588997 24.938 33.822998 24.938 32.878 L 24.938 31.273998 C 24.938 30.331 24.172 29.563 23.227 29.563 z "/>
        <linearGradient x1="516.4316" gradientTransform="matrix(1 0 0 1 -494.0068 -1628.0156)" y1="1658.4199" x2="516.4316" gradientUnits="userSpaceOnUse" y2="1661.7344" xlink:type="simple" xlink:actuate="onLoad" id="SVGID_8_" xlink:show="other">
            <stop stop-color="#7f7f7f" offset="0"/>
            <stop stop-color="#000000" offset="0.6813"/>
            <stop stop-color="#000000" offset="1"/>
        </linearGradient>
        <path fill="url(#SVGID_8_)" d="M 24.082 32.878 C 24.082 33.351997 23.699001 33.733997 23.227001 33.733997 L 21.623001 33.733997 C 21.150002 33.733997 20.768002 33.349 20.768002 32.878 L 20.768002 31.273998 C 20.768002 30.800999 21.151001 30.419998 21.623001 30.419998 L 23.227001 30.419998 C 23.704 30.419998 24.082 30.801998 24.082 31.273998 L 24.082 32.878 z "/>
        <path fill="#10d600" d="M 15.244 33.21 C 15.244 33.322998 15.152 33.413998 15.038 33.413998 L 15.038 33.413998 C 14.925 33.413998 14.833 33.322998 14.833 33.21 L 14.833 31.373 C 14.833 31.259998 14.925 31.168999 15.038 31.168999 L 15.038 31.168999 C 15.152 31.168999 15.244 31.259998 15.244 31.373 L 15.244 33.21 z "/>
        <path fill="#ff0000" d="M 29.857 32.354 C 29.857 32.467 29.765001 32.561 29.652 32.561 L 29.652 32.561 C 29.54 32.561 29.448 32.467 29.448 32.354 L 29.448 31.375 C 29.448 31.262 29.539999 31.171 29.652 31.171 L 29.652 31.171 C 29.765001 31.171 29.857 31.262 29.857 31.375 L 29.857 32.354 z "/>
        <path fill="#ff0000" d="M 29.857 33.004 C 29.857 32.893 29.765001 32.801003 29.652 32.801003 L 29.652 32.801003 C 29.54 32.801003 29.448 32.893 29.448 33.004 L 29.448 33.210003 C 29.448 33.323 29.539999 33.414 29.652 33.414 L 29.652 33.414 C 29.765001 33.414 29.857 33.323 29.857 33.210003 L 29.857 33.004 z "/>
        <path fill="#c6c6c6" d="M 24.102 5.576 C 24.102 5.7840004 23.934 5.951 23.729 5.951 L 21.41 5.951 C 21.203 5.951 21.036 5.7840004 21.036 5.576 L 21.036 5.576 C 21.036 5.3690004 21.203 5.202 21.41 5.202 L 23.726 5.202 C 23.934 5.203 24.102 5.369 24.102 5.576 L 24.102 5.576 z "/>
    </g>
</svg>
